<?xml version="1.0" encoding="UTF-8" standalone="no"?>
<!-- Generator: Adobe Illustrator 16.0.0, SVG Export Plug-In . SVG Version: 6.00 Build 0)  -->

<svg
   xmlns:dc="http://purl.org/dc/elements/1.1/"
   xmlns:cc="http://creativecommons.org/ns#"
   xmlns:rdf="http://www.w3.org/1999/02/22-rdf-syntax-ns#"
   xmlns:svg="http://www.w3.org/2000/svg"
   xmlns="http://www.w3.org/2000/svg"
   xmlns:sodipodi="http://sodipodi.sourceforge.net/DTD/sodipodi-0.dtd"
   xmlns:inkscape="http://www.inkscape.org/namespaces/inkscape"
   version="1.1"
   id="Layer_1"
   x="0px"
   y="0px"
   width="30"
   height="30"
   viewBox="0 0 30 30"
   enable-background="new 0 0 24 24"
   xml:space="preserve"
   inkscape:version="0.48.4 r9939"
   sodipodi:docname="add.svg"><metadata
     id="metadata9"><rdf:RDF><cc:Work
         rdf:about=""><dc:format>image/svg+xml</dc:format><dc:type
           rdf:resource="http://purl.org/dc/dcmitype/StillImage" /></cc:Work></rdf:RDF></metadata><defs
     id="defs7"><filter
       inkscape:collect="always"
       id="filter5228"
       color-interpolation-filters="sRGB"><feGaussianBlur
         inkscape:collect="always"
         stdDeviation="0.115"
         id="feGaussianBlur5230" /></filter></defs><sodipodi:namedview
     pagecolor="#ffffff"
     bordercolor="#666666"
     borderopacity="1"
     objecttolerance="10"
     gridtolerance="10"
     guidetolerance="10"
     inkscape:pageopacity="0"
     inkscape:pageshadow="2"
     inkscape:window-width="1440"
     inkscape:window-height="839"
     id="namedview5"
     showgrid="false"
     inkscape:zoom="16"
     inkscape:cx="4.2159"
     inkscape:cy="12.243852"
     inkscape:window-x="-2"
     inkscape:window-y="-3"
     inkscape:window-maximized="1"
     inkscape:current-layer="Layer_1" /><path
     clip-rule="evenodd"
     d="m 26.026,17.474 h -8.5 v 8.5 c 0,0.276 -0.224,0.5 -0.5,0.5 h -4 c -0.276,0 -0.5,-0.224 -0.5,-0.5 v -8.5 h -8.5 c -0.276,0 -0.5,-0.224 -0.5,-0.5 v -4 c 0,-0.276 0.224,-0.5 0.5,-0.5 h 8.5 v -8.5 c 0,-0.276 0.224,-0.5 0.5,-0.5 h 4 c 0.276,0 0.5,0.224 0.5,0.5 v 8.5 h 8.5 c 0.276,0 0.5,0.224 0.5,0.5 v 4 c 0,0.276 -0.224,0.5 -0.5,0.5 z"
     id="path3"
     style="fill:#ffffff;fill-opacity:1;fill-rule:evenodd;stroke:#000000;stroke-width:0.5;stroke-miterlimit:4;stroke-opacity:1;stroke-dasharray:none;filter:url(#filter5228)"
     inkscape:connector-curvature="0"
     transform="matrix(0.99783802,0,0,0.99783802,0.00648594,0.05837456)" /></svg>