<?xml version="1.0" encoding="utf8" standalone="no"?>
<svg viewBox="0 0 744.09448819 1052.3622047" xmlns="http://www.w3.org/2000/svg">
<path d="m394.20276,70.24569c-3.44153-.05241-6.93443,1.75004-9.31219,4.67721v.20799c-2.65044.21698-4.95992.6954-6.42545,1.82357-1.10465-1.48635-1.34304-3.68097-4.27096-3.67573-3.25331,1.10585-7.51753,1.3658-11.25391,2.33868l-7.29486.56708-3.96862.43934c-3.14235,1.06797-5.67734-.44144-8.33887.81265-8.46764,2.17381-15.01274,4.27201-28.87187,13.07283-17.51404,5.95242-19.21856,8.24617-55.6132,20.28264-7.84756,3.97042-31.02906,9.42704-57.34228,27.95544-4.74354,3.78519-9.64746,6.44642-7.48832,13.27139 .79573,6.60979 5.81914,12.26586 10.616,18.63846 10.05461,12.33804 41.77324,45.78559 64.88271,62.17552 14.77256,12.49452 33.74794,24.22475 38.09916,38.61397 .30428,1.0175 1.13655,2.09834.0988,2.94813-8.04447,1.61018-13.83591,3.65687-16.28555,6.34984 5.0315-2.98961 10.91578-2.40023 18.09983-5.13558 .78211,3.28566 2.54907,6.21971 3.12768,9.59566-3.88762,2.16992-5.80927,4.99826-5.36244,8.61289-5.46201,2.42973-6.32842,6.06054-5.18753,9.27431 .80277-2.69282 1.51465-5.24069 6.17973-6.34504 1.14433,3.44303 3.21243,6.29832 5.05531,9.0428-.25816-.52694-.1761-1.1587-.46301-1.66304-1.3366-2.34976-2.76035-4.73606-3.67573-7.89008l.22207-.25517 5.24893-.94487 4.24745,16.55973c-.57187,2.16887-.0449,3.6076.0749,5.31512-.92975,3.09218-.29395,4.90272.12279,6.8931l-.0195,4.25688c-.4645,1.43723-.23944,4.50306-.33078,5.59857-.10033,1.20528-.0973,2.26546.64254,3.2033-2.74747,3.489-.45372,3.61703-.0195,4.98448l.15124,2.04099c-3.172,2.61855-1.69479,4.66823-.17954,7.20037 .37765,1.19375.12878,1.86774-.015,2.63158-3.27696,3.35319-.37405,4.27036.72281,4.8852 .50808.51167.46989,1.02379.0764,1.53546-1.82282,2.56285-.59493,2.88659.17475,3.54815-3.86201,5.54632-3.54396,12.51833-5.85838,17.67472-6.71102,14.95135-23.37033,30.15876-35.55728,43.47087-5.4975,8.35354-11.21212,15.77838-12.01459,28.31438-3.32654,5.17406-6.30567,13.01503-7.05857,17.44322l-12.28863,30.36959c-7.22268,40.53592 5.14067,67.79686 16.70619,103.38333 4.32935,18.68324 10.74477,37.12434 15.79424,54.24291-4.47161,10.67425-7.82584,21.34431-11.60834,32.01856-3.32533,10.31741-6.75938,20.44016-9.09956,32.48156-1.07814,2.90636-2.89782,10.04054-3.15597,12.56266-1.37614,13.44898 5.21134,19.63919 17.04624,30.7429 5.10383,6.5725 9.48874,9.80514 15.34083,16.91387l4.0158,5.00335 1.78119,17.06991c4.60309,24.63565 11.6931,46.78273 15.5298,70.26881l10.65389,67.22139c1.93018,8.97153-8.1138,18.55416-13.38474,23.11741-6.61922,7.78048-21.23485,16.04882-27.09083,15.79904-9.23912,3.39482-2.77518,14.26928 4.28997,8.35295 4.20582-1.17908 16.44294,2.01493 26.38674-5.57971 5.33818-4.07704 17.03157-7.71729 22.07805-7.6821 5.41275.0374 10.77503-.0719 14.99582-3.33087 3.18847-2.35395 4.68066-5.95526 3.68038-11.4005-4.46473-4.87712-5.51652-9.861-7.6207-15.67611l-.74168-75.72557c32.76368,41.74748 36.13049,39.88334 42.16677,59.32651 2.86262,11.01103 3.61583,19.97087.79378,24.50643-2.69057,9.85456-14.1649,28.78516-21.30792,31.85788-6.9244,6.99583 3.85318,12.05054 7.739,3.6946 3.30751-2.85289 15.74049-5.15039 21.5204-16.24782 3.10282-5.95736 17.5127-16.14075 22.09692-18.25107 4.91694-2.26351 9.72248-4.63633 12.16104-9.37823 1.88784-3.48481 1.71458-7.38141-1.50237-11.88717-5.9003-6.00288-10.36518-4.11852-14.58477-13.1438-5.69966-9.28554-24.4073-35.62317-28.29566-46.54659-10.8505-26.07782-14.94521-55.58056-25.07335-79.39187-1.04251-11.39302-6.29728-22.27616-15.05243-32.02321-.32718-6.88142-.27552-13.78874.92601-21.4638 3.44243-22.0743 1.43379-44.81796-2.64101-60.98492 14.65082-26.44858 45.42037-78.18914 44.10863-77.08628 7.57023-14.32872 15.59644-42.36727 18.39288-54.78633 7.38366-14.75982 10.43916-27.97461 10.67755-40.18252 2.29076-1.64672.56063-2.88869.58579-4.30884 .13327-.29634-.0344-.80921.4961-.82209 .31955-.65333 1.38811-.89906.43934-2.24419-.19227-.66411.0494-1.04191.62368-1.19525 .77462-.28346.74527-.96704.82688-1.597 2.59504.55914 2.46641.70798 8.27747,1.52602 2.2261.31341 10.7186,4.83894 15.65726,5.84431 5.54767,1.19135 7.95089-.76549 11.5468-1.52603 26.0633-18.84316 52.6763-48.28031 78.15411-80.29422l6.72778-8.66965c5.20865-6.57999 7.87377-8.51466 11.55159-13.34701 3.41773-4.49033 6.56502-5.45108 6.33097-10.59713-.13327-2.93301-2.23506-5.36677-2.71184-10.31861l-4.18605-14.85881-9.47272-23.71728c-4.05473-15.24005-10.95322-26.48482-18.75661-39.20471-2.70614-5.45018-5.55694-11.75524-8.5184-18.73759-1.3372-8.17789-5.73784-17.8866-8.90115-26.97747l-9.85546-21.99764c-8.87135-16.04132-12.81512-21.92486-35.78878-16.89515l-3.32144.59058 1.69614-2.74493c4.61731-2.86847 5.5508-5.17391 7.71998-8.59882 .57725-14.21147-6.71836-13.00335-16.19586-20.96291 .015-.024.0285-.0479.0419-.0704-4.70506-15.25683-14.66204-32.08115-21.89838-7.11532 1.08249-9.22894 4.16811-13.12778 2.70722-22.62596 14.96947,11.27128 16.55659,13.52311 19.80062,28.67346 3.77216-7.02592 5.13377-17.70751 4.70102-17.99591 7.74244.58909 4.48583,19.4899 1.29452,19.36127 3.73159,1.13894 11.25241-15.91375-1.88032-23.44325-.52859-6.3744-.44728-15.44565-5.2916-17.78343 1.82431-.83542 4.60383-3.21707 3.02375-4.06312-4.28668-2.29525-1.40758-4.51564.52919-6.59556 .39727-.42662.13776-1.14763.2598-1.68655 5.64066-3.48047.90909-7.45718-.39217-11.26828-2.26935-3.40111-6.55498-4.92579-12.96891-5.46156l.96375-8.82553c.0389-1.76457.26953-3.4649-.7276-5.57492-.37391-1.49862-.90774-2.94529-2.35276-4.08678-4.87262-3.82562-5.86257.88753-7.25233,4.72452l-2.53233-3.41113c-3.07107-3.75989-5.38953-8.27013-10.7343-9.75633-2.13622-3.02121-.68387-3.9869-5.1781-7.25697-1.98903-1.04161-3.99093-2.1843-5.98611-3.27412-1.98918-6.55917-6.02444-9.25933-10.12948-9.32148zm1.57799,2.93391c2.9366-.03444 5.53149,1.4561 7.48384,5.80642-4.50531-2.40696-8.9618-4.37847-13.14381-4.04889-.24348,0-.48501,0-.7276.01497 2.22353-1.01301 4.38611-1.7436 6.38757-1.76711zm38.77947,26.58051c.59523,0-1.31818,1.26248-1.31818,1.93707s1.38437,2.1828.78899,2.1828-2.80168-1.50821-2.80168-2.1828 2.73564-1.93707 3.33087-1.93707zm-102.97232,13.38938c.51841-.0299.82957.2071.73224.97812l-1.4835,3.30722c-3.02315,1.45894-3.45171,3.2563-5.84894,5.1733 .89621-3.50143 1.96058-6.92274 5.48986-9.17038 .41568-.15364.79917-.27044 1.11034-.28826zm-5.65069,2.32925c.033,0 .0494,0 .0419.0195-1.5127,3.61373-2.97628,2.14746-3.93074,9.36415-.16068,1.21471-3.12528.80591-3.5766,2.92462-.0704.33408 2.53169,2.69178 2.45203,3.05206-.23509,1.06392-3.66809,2.05491-3.9827,3.36381-.23734.98711 2.66317,2.23895 2.37641,3.3782-.26669,1.05928-4.88265-2.60193-6.12312-2.4143-5.41409.81894-5.09709,2.93914-1.39366,5.91513 .92152.74063 9.20708,2.22143 8.9058,3.48675-.41374,1.73777-4.24491,2.0964-4.71989,4.06312l-3.49619,3.28356c-.44878,2.34467-1.40324,7.33259-1.40324,7.33259l-.2929,7.4744c-10.25856-7.98083-39.69751,3.48257-26.69386,15.1848 4.01505-15.99565 31.04913-14.67118 29.13647,1.13385-.60751,7.13613-4.02823,6.94746-7.78138,5.9057-3.90514-3.92985-8.02635-7.10229-12.94539-7.48369-5.23171,3.88552-9.0774,8.98201-15.19424,9.41612-11.28565-9.76951-22.88126-20.21001-33.14761-27.77111-1.17833-.55675-1.24646-1.22445.16067-2.03635 6.40599-5.20012 14.23453-10.16438 22.14408-15.11397 8.8727-6.11294 17.37673-12.67152 27.44977-17.34394 10.68383-4.93701 16.38962-7.88994 26.94902-11.70747-.0569.28391 4.56955-1.41282 5.06474-1.4269zm8.60826,1.05359c.43904-.015-.24483.9037-.45357,1.4269-3.05176,2.6142-5.82454,5.29085-9.96418,7.66322l.43471-1.67247 6.98759-5.65533c1.86669-1.30845 2.69506-1.75274 2.99545-1.76232zm-.789,3.00953c-.65527.92316-.86536,1.59955-2.58441,3.11359-.69001-.50523-2.02466,2.82415-7.13882,4.59695 3.42251-2.66092 6.5433-5.17076 9.72323-7.71054zm112.09075,4.34193c.12129,0 .24647,0 .37331.015 4.43193.96868 4.32396,3.98764 4.97969,6.66159l-3.87894-.8125c-3.50682-2.11766-3.48451-2.68473-3.9261-3.45366-.41014-1.73372.64509-2.43811 2.45204-2.40966zm-115.87519,2.36234c-1.55373,2.03905-3.61299,3.57106-4.59695,6.17973-.85054.14989-2.15809,1.57679-2.4426.14225-.4943-1.03577.0854-2.25003.2881-3.4017 2.58246-.31146 4.51175-1.92329 6.75145-2.91983zm97.04293,9.91685c12.34241,8.46331 12.53124,15.18944 10.73912,12.6242-1.75483-5.44104-9.85429-3.8078-9.74213-7.2995 .0254-.78525-.63087-4.59665-.99699-5.3247zm-93.76402,7.52157c.0479,0 .0764.015.0764.0479-1.11229,1.46718-12.44885,10.85889-15.80848,6.41602 4.26962,2.79061 14.75878-6.32707 15.73286-6.46319zm95.29487,1.29453c4.18111,2.53814 8.33093,5.34761 12.26032,10.15315l3.2599,4.20956c-5.53314-5.20041-11.4881-11.66704-15.32645-11.7831 .0584-.9019.12129-1.802-.19377-2.57961zm-94.49165,9.5389c.024,0 .0374.0165.0374.0479-1.11214,1.76097-13.59693,16.77132-16.95656,11.43824 4.33954,3.40439 16.18269-11.46654 16.91882-11.48556zm11.24447,13.54542c1.67577,4.02643 3.35124,4.40767 5.31991,6.3687 2.51971,2.51013 5.51966,4.8283 9.62395,2.92462-.22925.23405.96704,2.56914.74647,2.80633s-.50209,1.96732-.71337,2.20645c-8.50434,9.61572-11.54216,17.58488-11.54216,17.58488-2.4137,6.65246-.97737,24.35548-9.86025,26.63246 10.11481-3.8659 1.19644-23.82479 8.68372-27.5727 .13327-3.67962.68627-2.66032 1.75289-6.16086 1.75857-9.4802-2.10733-19.17813-4.01116-24.78988zm9.31219,10.498c1.63759,5.40661-3.00773,12.11717-3.86006,14.42426l3.18907-4.73876c1.64657-2.27459 2.89557-4.70806 4.5357-6.29787-2.85634.50822-2.06106-1.57664-3.86471-3.38763zm-62.28423,5.97668c6.18302,1.85486 13.26076,13.69456 25.38511,5.26779-9.41371,14.10321-23.31686-3.65177-30.3648-2.48977 1.52423-1.01735 2.74703-2.23311 4.97969-2.77802zm133.35611.2598c.015,0 .0255.0255.0284.0764 .29395,4.71944 3.52018,18.62079 6.28847,22.46543-3.19596-1.95833-5.54425-5.45048-9.87435-5.36722l-.57172-7.94669c1.05029.28571 3.81394-9.26563 4.1293-9.22714zm-62.19439,1.62051c3.59427,3.94108 3.81125,9.44367 5.28681,14.36271-3.75389-2.16093-4.13319,5.241-5.96245,8.53264l2.03156-11.7831c1.05868-2.94783-.34366-7.12894-1.35592-11.11225zm-75.30989,3.34031c3.11555.0434 5.37157,1.50671 7.04898,3.9309 .47693.45821.33827.77162-.35893.9591-1.96447-.0973-3.92715.74556-5.89162,2.27249l-2.16857-.74647c-4.56266-2.18085-5.12614-2.51672-7.58776-3.72769 3.59173-1.90008 6.53462-2.72232 8.9579-2.68833zm152.43874,1.29453c5.01158,2.85424 12.2437,4.49602 14.75009,8.71681l-11.01776-1.33705-3.54336.47723c-2.75062-2.11586-1.41776-4.99496-.18897-7.85699zm-147.23698,4.72453c.44219,0 .33977.71217 1.50716.6662-1.6319,1.1906-.43351,1.73881-1.17653,2.68354l-3.20793-1.38902c1.8598-1.5386 2.53334-1.96342 2.8773-1.96072zm32.57126,1.60164c1.0783.35759 2.66018.21294 1.05359,3.25526-10.72502,5.73184-2.31727-.45372-1.05359-3.25526zm120.19811,3.31201h.47723c6.72778.0464 6.90822,2.43961 10.75795,4.73396-1.89574,5.64036-4.08842,7.71729-6.22704,10.4414-.70334-5.70744-3.45082-10.76844-9.00507-14.94386 1.53995-.14675 2.85724-.22117 3.99693-.2315zm-23.83082,4.72932c6.64561,4.28938 6.03658,7.22957 8.43354,10.44125-3.24705-3.09608-5.85841-.56408-8.43354-10.44125zm-52.19248.91178c.85638,2.80034 1.29228,5.59993 0,8.40026-3.06613,24.06109-3.84299-7.04808 0-8.40026zm68.19475,3.70883h.16532c1.46149.0374 2.71109,1.14133 4.14353,1.32282 2.5296,3.04681 2.38585,6.50572 1.62515,10.05866l-7.28048-2.68354c1.64268-2.39453.1758-4.79161-1.43633-7.18614 1.04625-1.10001 1.95129-1.4862 2.78281-1.5118zm40.61723,92.52145c11.85677,20.76376 19.35813,43.27082 28.92862,64.9489 4.16974,6.46858 6.36436,13.16357 1.65825,20.64651l-22.15816,37.21553c-12.03541,18.82728-25.84811,34.09414-39.34172,50.00489-2.04878-.14375-3.98794-.73045-6.397.56707-.73299-1.34873-1.98229-2.6148-4.37024-3.70882-1.21201-1.43454-2.12095-2.95682-4.16718-4.15296-.59972-2.00775-2.0359-3.49544-3.64728-4.87098-.47559-.85338-.85129-1.90772-1.20007-3.01432-.6099-1.37344-1.12397-2.74643-1.47886-4.11987-.38334-2.83807-1.47631-5.61295-4.6537-8.1972 .22985-3.54052 1.34005-7.96047 2.30094-12.23188 3.28641-9.86279 9.211-18.5269 15.25087-27.138 5.26465-8.94622 10.29166-18.15898 13.79114-29.12238l1.32762-2.3008 9.94051-29.34446c1.8917-3.16765 3.53617-7.81147 5.1781-12.4776l8.12159-32.47677 .91657-.22686z" fill-rule="evenodd" stroke="#fff" stroke-width=".20214"/>
<path d="m266.55409,453.20547c.56498-.31461 1.06842.0479 1.54325.72371l.0255.88992c.41988.24139 1.07919.12279.82433,1.37658 .81804-.71187 1.25454.027 1.62635,1.00972 .85788-.27403 1.41058.57097 2.0091,1.24735 1.11528,1.12562 1.48185-.62307 2.55221,1.64523 1.64388.15767 2.36129,1.13864 3.22905,1.98618 2.07948.37421 2.01554.20141 2.93571,1.90637 1.87672-.56692 2.19882.89921 2.992,1.74915 .024-.46151 3.01567-.37496 3.04876,2.0636 2.22548-.61679 2.94259.98126 2.92418,1.68146 2.19193-.26564 2.26994.83646 3.05969,1.47811 2.29435.3462 2.30648,1.50371 3.15043,2.0636 2.82474-.16561 1.88406,1.08054 2.75481,1.64762 2.37732.45132 1.57754.0539 3.30827,1.70317-.3233-.71517 3.29763.24468 3.01492,1.58937 1.82835-.0764 2.34706.74751 2.75496,1.64762 1.10001-.0943 3.00743-.26595 3.74851,1.73701 .99249-.12578 2.65658.32734 3.20658,1.49997 1.79182-.19871 2.20766.85339 3.09369,1.47811 1.26397-.0898 1.76127.28107 1.67097,1.00403l1.37898-.4371 2.8544-1.1921 1.60569,3.6618c4.40632.26535 6.44447,3.03049 6.20713,3.32833 1.97151-1.77205 2.78715.38634 4.21854.70783 1.8032-1.14598 3.15164-.26998 4.52343.70394 2.06465-.86746 3.73997-.78944 4.81827.67564 1.78957-1.54145 3.38717.0195 5.10337.62233 1.7475-.83436 3.54082-1.26952 5.37831.54447 1.83764-1.09447 3.71945-1.30621 5.6438.44159 2.25841-1.20962 4.09156-.56813 5.89895.31401 2.09475-1.1367 4.15012-1.17488 6.14454.16172 2.37372-1.0458 4.64577-1.59236 6.38008-.015 2.4143-1.65795 4.46458-.73973 6.6059-.21743 2.49306-1.76292 4.60219-.83497 6.82182-.44384 4.56446-1.92374 4.65924-.42467 7.02772-.69555 2.7048-1.9212 4.78832-.61919 7.22373-.97168 2.98228-2.00086 7.5331-1.64163 7.41017-1.27266 0,0 1.77984-.72566 1.8613-1.13296 2.25422,1.73522.95251,4.35946.88108,6.67598 .0674,1.39874.61455,3.1702-.84485,3.38133-.39651.17086-.82223.31252-.34021,1.36206l-.60796,2.04219c-.59552.41165-.65856.91194-.17025,1.50417 .73074,1.95713.0734,2.72396-.41165,3.63964-.85203,1.4844-2.23236,2.04414-3.80331,2.2707-.42706,3.06403-2.44095,2.42328-4.25628,2.18145-1.75019,1.39126-3.37146,2.60657-4.40603.40835-1.6873,2.21229-3.8093,2.30289-4.41291.18043-1.90997.76384-2.55191,2.08053-5.13453.82628-1.63503,1.89425-3.64997,1.31984-5.63451.94308-1.58922.77238-3.27068,1.38348-5.57312.90804-1.79946.92916-3.57091,1.88152-6.42545,1.93123-2.96685,2.29915-4.21825,1.67173-5.71403,1.46134-1.6605,2.32565-3.75629,2.28358-5.38175,1.37628-1.28853,1.18192-3.22171,1.93408-5.59304,2.39409-2.24598,2.23626-5.757,3.20719-8.82373,4.62255-14.50661,6.40015-23.57607,15.33769-32.80995,24.19841-6.20578-6.04466-10.52915-13.73649-13.85119-22.30461-3.4303-7.21101-6.48041-11.75944-9.56151-16.5253-1.6879-1.1912-3.41713-2.13398-4.75672-5.41394-3.30078-1.25754-3.29748-2.70929-3.63845-4.14098-2.70824-.68028-2.95637-2.30678-3.39242-3.86111-3.48001-.74198-5.1474-2.14297-4.65415-4.32981-3.31709-.2342-4.02058-2.33539-3.55743-5.26974-2.52661.55569-3.32818-.75725-3.70613-2.5293-2.5883-.43456-3.58873-1.66319-3.28745-3.54246-2.57138.33048-2.63577-.57711-2.97029-3.1705-1.88901-.44773-1.98185-.86072-1.75708-2.4444-1.59401-.26834-2.30559-1.24272-2.09325-2.95607-.58056-.51901-1.69045-.31566-.39637-3.39062l-.22911-1.95908c1.02619-6.47772 6.63105-17.40623 6.73393-17.38048z" fill="#fff" fill-rule="evenodd"/>
<path d="m454.76244,218.985c-1.09746,0-2.31682.28032-4.52612,2.87251-6.00303,6.36916-3.99139,11.93359-5.46156,17.84947l2.51822,59.71869c-24.84757,4.34224-44.9842,11.44243-57.06364,26.50968-2.35799.37077-4.12166,1.25185-4.69622,3.15134l-3.93075-1.03473c.60377-1.72263.25547-3.35153-1.69149-4.81901-13.83022-11.93149-22.50182-28.02672-48.94187-32.01856 3.63141-16.95356 11.7265-33.45459 18.97853-49.24435-1.1638-2.46746-2.47554-4.54244-6.14663-.49131-8.29994,17.78059-11.47104,34.26994-16.62113,50.04742-.35953.87195-1.11828.13627-1.50716.9591-2.80812,5.93999-5.81585,12.43029-7.10094,20.03706l.42541,4.09067c-.7559,4.33325-.16786,4.90317-.1153,6.97321l.0794,5.42188c-.38993,2.84616-.3245,5.51023.18882,7.99506-2.3577,3.60745-.81699,3.72664.10332,4.40063l.27897,2.17486c-.81505,1.29123-2.95786,3.65822-2.0076,4.72543 2.55611,2.87087 2.97015,5.77333.92317,6.37469-1.13924.33468-1.08264,2.6467.015,2.97374 3.13262.93544 2.23461,2.21529 1.45086,2.80318-.5822,1.65241-1.39665,2.95637.46495,3.1425 3.07496-4.92204 18.59219.33722 30.19784-1.6578 26.00534-10.92836 46.82765,1.55028 65.9083,6.56472 14.3891,2.00535 34.2842.34006 37.44841,9.8285l11.66668-32.47318-11.62931-45.79682-2.9056-25.14433c1.13759-10.65044-2.22098-23.54912-3.83641-35.57599-.33228-9.27341 4.56281-14.47712 8.62233-20.33475-.37106.015-.72071-.0225-1.08668-.024zm-125.26285,69.78679h.10332c.0779,0 .15214.021.22686.0479 .59718.21547.82419,1.10569.50553,1.98918s-1.06122,1.4248-1.6584,1.20947-.82418-1.1057-.50553-1.98903c.26145-.72476.80966-1.2213 1.32762-1.25679zm120.79348,6.69948c1.21681,0 2.20167,1.13505 2.20167,2.53709s-.98486,2.54173-2.20167,2.54173-2.20166-1.13969-2.20166-2.54173 .98486-2.53709 2.20166-2.53709z" fill="#fff" fill-rule="evenodd"/>
</svg>
