<?xml version="1.0" encoding="UTF-8" standalone="no"?>
<!-- Generator: Adobe Illustrator 16.0.0, SVG Export Plug-In . SVG Version: 6.00 Build 0)  -->

<svg
   xmlns:dc="http://purl.org/dc/elements/1.1/"
   xmlns:cc="http://creativecommons.org/ns#"
   xmlns:rdf="http://www.w3.org/1999/02/22-rdf-syntax-ns#"
   xmlns:svg="http://www.w3.org/2000/svg"
   xmlns="http://www.w3.org/2000/svg"
   xmlns:sodipodi="http://sodipodi.sourceforge.net/DTD/sodipodi-0.dtd"
   xmlns:inkscape="http://www.inkscape.org/namespaces/inkscape"
   version="1.1"
   id="Layer_1"
   x="0px"
   y="0px"
   width="30"
   height="30"
   viewBox="0 0 30 30"
   enable-background="new 0 0 24 24"
   xml:space="preserve"
   inkscape:version="0.48.4 r9939"
   sodipodi:docname="check.svg"><metadata
     id="metadata9"><rdf:RDF><cc:Work
         rdf:about=""><dc:format>image/svg+xml</dc:format><dc:type
           rdf:resource="http://purl.org/dc/dcmitype/StillImage" /></cc:Work></rdf:RDF></metadata><defs
     id="defs7"><filter
       inkscape:collect="always"
       id="filter3754"
       color-interpolation-filters="sRGB"><feGaussianBlur
         inkscape:collect="always"
         stdDeviation="0.10497187"
         id="feGaussianBlur3756" /></filter></defs><sodipodi:namedview
     pagecolor="#ffffff"
     bordercolor="#666666"
     borderopacity="1"
     objecttolerance="10"
     gridtolerance="10"
     guidetolerance="10"
     inkscape:pageopacity="0"
     inkscape:pageshadow="2"
     inkscape:window-width="1440"
     inkscape:window-height="839"
     id="namedview5"
     showgrid="false"
     inkscape:zoom="22.627417"
     inkscape:cx="11.856917"
     inkscape:cy="16.662243"
     inkscape:window-x="-2"
     inkscape:window-y="-3"
     inkscape:window-maximized="1"
     inkscape:current-layer="Layer_1" /><path
     clip-rule="evenodd"
     d="m 21.652,3.211 c -0.293,-0.295 -0.77,-0.295 -1.061,0 L 9.41,14.34 c -0.293,0.297 -0.771,0.297 -1.062,0 L 3.449,9.351 C 3.304,9.203 3.114,9.13 2.923,9.129 2.73,9.128 2.534,9.201 2.387,9.351 L 0.222,11.297 C 0.078,11.445 0,11.63 0,11.823 c 0,0.194 0.078,0.397 0.223,0.544 l 4.94,5.184 c 0.292,0.296 0.771,0.776 1.062,1.07 l 2.124,2.141 c 0.292,0.293 0.769,0.293 1.062,0 L 23.777,6.422 c 0.293,-0.294 0.293,-0.777 0,-1.071 l -2.125,-2.14 z"
     id="path3"
     style="fill:#ffffff;fill-rule:evenodd;stroke:#000000;stroke-width:0.5;stroke-miterlimit:4;stroke-opacity:1;stroke-dasharray:none;filter:url(#filter3754)"
     inkscape:connector-curvature="0"
     transform="matrix(0.95904794,0,0,1.0541418,3.4929831,2.365319)" /></svg>