<?xml version="1.0" encoding="UTF-8" standalone="no"?>
<!-- Generator: Adobe Illustrator 16.0.0, SVG Export Plug-In . SVG Version: 6.00 Build 0)  -->

<svg
   xmlns:dc="http://purl.org/dc/elements/1.1/"
   xmlns:cc="http://creativecommons.org/ns#"
   xmlns:rdf="http://www.w3.org/1999/02/22-rdf-syntax-ns#"
   xmlns:svg="http://www.w3.org/2000/svg"
   xmlns="http://www.w3.org/2000/svg"
   xmlns:sodipodi="http://sodipodi.sourceforge.net/DTD/sodipodi-0.dtd"
   xmlns:inkscape="http://www.inkscape.org/namespaces/inkscape"
   version="1.1"
   id="Layer_1"
   x="0px"
   y="0px"
   width="30"
   height="30"
   viewBox="0 0 30 30"
   enable-background="new 0 0 24 24"
   xml:space="preserve"
   inkscape:version="0.48.4 r9939"
   sodipodi:docname="del.svg"><metadata
     id="metadata9"><rdf:RDF><cc:Work
         rdf:about=""><dc:format>image/svg+xml</dc:format><dc:type
           rdf:resource="http://purl.org/dc/dcmitype/StillImage" /></cc:Work></rdf:RDF></metadata><defs
     id="defs7"><filter
       inkscape:collect="always"
       id="filter3750"
       color-interpolation-filters="sRGB"><feGaussianBlur
         inkscape:collect="always"
         stdDeviation="0.10500594"
         id="feGaussianBlur3752" /></filter></defs><sodipodi:namedview
     pagecolor="#ffffff"
     bordercolor="#666666"
     borderopacity="1"
     objecttolerance="10"
     gridtolerance="10"
     guidetolerance="10"
     inkscape:pageopacity="0"
     inkscape:pageshadow="2"
     inkscape:window-width="1440"
     inkscape:window-height="839"
     id="namedview5"
     showgrid="false"
     inkscape:zoom="16"
     inkscape:cx="16.632742"
     inkscape:cy="13.967113"
     inkscape:window-x="-2"
     inkscape:window-y="-3"
     inkscape:window-maximized="1"
     inkscape:current-layer="Layer_1" /><path
     d="m 24.277764,8.0259857 c 0.313,0.313 0.313,0.826 0,1.139 l -6.276,6.2700003 c -0.313,0.312 -0.313,0.826 0,1.14 l 6.273,6.272 c 0.313,0.313 0.313,0.826 0,1.14 l -2.285,2.277 c -0.314,0.312 -0.828,0.312 -1.142,0 l -6.271,-6.271 c -0.313,-0.313 -0.828,-0.313 -1.141,0 l -6.2759997,6.267 c -0.313,0.313 -0.828,0.313 -1.141,0 l -2.282,-2.28 c -0.313,-0.313 -0.313,-0.826 0,-1.14 l 6.2779997,-6.269 c 0.313,-0.312 0.313,-0.826 0,-1.14 L 3.7417643,9.1579857 c -0.314,-0.313 -0.314,-0.827 0,-1.14 l 2.284,-2.278 c 0.315,-0.312 0.828,-0.312 1.142,0.001 l 6.2699997,6.2700003 c 0.314,0.314 0.828,0.314 1.141,10e-4 l 6.276,-6.2670003 c 0.312,-0.312 0.826,-0.312 1.141,0 l 2.282,2.281 z"
     id="path3"
     style="fill:#ffffff;fill-opacity:1;stroke:#000000;stroke-width:0.5;stroke-miterlimit:4;stroke-opacity:1;stroke-dasharray:none;filter:url(#filter3750)"
     inkscape:connector-curvature="0"
     transform="matrix(1.0901784,0,0,1.091123,-0.27041727,-2.4602022)" /></svg>