<?xml version="1.0" encoding="utf8" standalone="no"?>
<svg viewBox="0 0 584.84784 996.99011" xmlns="http://www.w3.org/2000/svg">
<g transform="translate(-95.47464,-40.70964)">
<path d="m375.87676,156.51322c-2.08344,0-4.59454.36485-7.625,1.375-12.12184,4.04061-23.22033,11.11801-29.28125,24.25s-13.15625,26.77697-13.15625,30.3125-3.02031,6.05822-1,9.59375-7.56171,11.11564-4.53125,15.15625 4.03125,5.03125 4.03125,5.03125-8.07186,8.07423-4.03125,13.125 10.07344,5.05663 12.09375,2.53125-5.04219,14.66719-7.0625,16.6875-18.18987,2.5184-27.28125,13.125-8.58359,35.84612-9.59375,44.9375-.0008,29.29266-3.03125,53.03125-5.04061,37.90165-1,60.125 4.5625,42.93322 4.5625,46.46875 19.6875,47.46875 19.6875,47.46875-5.0625,33.33723-5.0625,68.1875 1.53553,62.62309-2,75.25-14.65196,61.102-18.1875,72.71875-12.13087,62.14499-14.65625,78.8125-9.09375,44.93401-9.09375,51.5-2.03125,12.125-2.03125,12.125-12.11485,5.07345-13.125,7.09375-4.01951,11.09454 1.03125,14.125 38.88086,2.01951 41.40625-3.03125 7.56916-38.36993 13.125-38.875 6.5625,36.34375 6.5625,36.34375l5.5625-1c0,0-2.53553-28.77934 1-41.40625s5.07186-12.12579 1.03125-15.15625-18.68671-15.1645-15.65625-26.78125 36.8547-70.20827 38.875-89.90625 6.05314-33.33518 10.09375-40.40625 11.625-26.75238 11.625-35.84375 8.6012-44.45986 17.1875-70.21875 12.125-28.78125 12.125-28.78125c5.17796-6.39382 3.99017-8.36562 6.63393-16.29911l5.45982.14286c1.80509,13.08948 5.83489,27.97247 9.625,40.90625 6.06091,11.61676 15.13594,50.00237 17.15625,59.09375s3.52189,31.81408 7.5625,37.875 11.64102,19.71097 13.15625,29.8125 9.06995,31.30282 17.65625,54.03125 20.22383,51.53014 19.71875,67.1875-6.5625,19.18988-6.5625,28.28125 5.0414,21.19575 4.03125,32.8125 .5,21.21875.5,21.21875l4.5625.5 1-17.15625c0,0 4.0414,10.58439 3.03125,14.625s5.05901,3.55742 11.625,4.0625 27.2711,1.01443 28.28125-3.53125 3.02459-9.59613-2.53125-18.6875-8.08359-22.22541-9.09375-27.78125-7.58867-44.97034-8.09375-51.03125 .50778-41.92242-9.59375-83.84375-20.18243-73.23365-20.6875-90.40625 .79-76.36337-3.45982-98.10268c-1.96214-10.03702-5.10529-18.80543-8.53125-27.91071-3.46388-9.20603-4.61074-14.5211-12.11607-26.90625 0,0 9.90135-25.05448 17.51339-42.01786 7.42395-16.54423 6.56758-32.34026 6.0625-38.90625s-14.125-59.59105-14.125-69.1875-9.09534-39.39689-15.15625-43.4375-17.1875-8.09375-17.1875-8.09375 2.04648-9.07153.53125-23.71875-4.5625-16.6875-4.5625-16.6875 7.58709-22.2262 2.03125-30.8125-19.21018-47.97541-26.28125-53.53125-16.15784-9.58788-22.21875-7.0625c0,0-2.28093-3.40625-8.53125-3.40625zm54,208.46875c8.08122,11.11168 22.21875,48.96955 22.21875,52s-2.01095,5.56995-4.03125,14.15625-2.53125,26.78125-2.53125,26.78125-3.04727-3.55314-4.5625-7.59375-10.10041-15.65355-15.65625-25.25-3.01602-13.63673-4.53125-18.6875 3.03125-25.75 3.03125-25.75 1.51173,2.02268 6.5625,9.09375c1.45707,2.0399 1.61493,4.23435 1.15625,6.34375 .6948-1.60894 1.35964-3.38538 1.875-5.34375 2.52539-9.59645-3.53125-16.15625-3.53125-16.15625v-9.59375zm-118.1875,59.59375c9.59645,2.0203 5.03125,68.1875 5.03125,68.1875s-5.0422-1.53204-7.0625-4.5625 2.5414-15.1434 1.53125-25.75 .5-37.875.5-37.875z"/>
</g>
</svg>
