<?xml version="1.0" encoding="UTF-8" standalone="no"?>
<svg
   xmlns:dc="http://purl.org/dc/elements/1.1/"
   xmlns:cc="http://creativecommons.org/ns#"
   xmlns:rdf="http://www.w3.org/1999/02/22-rdf-syntax-ns#"
   xmlns:svg="http://www.w3.org/2000/svg"
   xmlns="http://www.w3.org/2000/svg"
   xmlns:sodipodi="http://sodipodi.sourceforge.net/DTD/sodipodi-0.dtd"
   xmlns:inkscape="http://www.inkscape.org/namespaces/inkscape"
   viewBox="0 0 350 925"
   id="svg2"
   version="1.1"
   inkscape:version="0.48.4 r9939"
   width="100%"
   height="100%"
   sodipodi:docname="bikini-model-154835.svg">
  <metadata
     id="metadata14">
    <rdf:RDF>
      <cc:Work
         rdf:about="">
        <dc:format>image/svg+xml</dc:format>
        <dc:type
           rdf:resource="http://purl.org/dc/dcmitype/StillImage" />
      </cc:Work>
    </rdf:RDF>
  </metadata>
  <defs
     id="defs12" />
  <sodipodi:namedview
     pagecolor="#ffffff"
     bordercolor="#666666"
     borderopacity="1"
     objecttolerance="10"
     gridtolerance="10"
     guidetolerance="10"
     inkscape:pageopacity="0"
     inkscape:pageshadow="2"
     inkscape:window-width="1440"
     inkscape:window-height="839"
     id="namedview10"
     showgrid="false"
     inkscape:zoom="0.44851478"
     inkscape:cx="545.27394"
     inkscape:cy="450.56565"
     inkscape:window-x="-2"
     inkscape:window-y="-3"
     inkscape:window-maximized="1"
     inkscape:current-layer="svg2" />
  <g
     id="g2991"
     transform="matrix(0.96363922,0,0,1,-186.36286,-69.579002)">
    <path
       id="path4"
       d="m 394.20276,70.24569 c -3.44153,-0.05241 -6.93443,1.75004 -9.31219,4.67721 v 0.20799 c -2.65044,0.21698 -4.95992,0.6954 -6.42545,1.82357 -1.10465,-1.48635 -1.34304,-3.68097 -4.27096,-3.67573 -3.25331,1.10585 -7.51753,1.3658 -11.25391,2.33868 l -7.29486,0.56708 -3.96862,0.43934 c -3.14235,1.06797 -5.67734,-0.44144 -8.33887,0.81265 -8.46764,2.17381 -15.01274,4.27201 -28.87187,13.07283 -17.51404,5.95242 -19.21856,8.24617 -55.6132,20.28264 -7.84756,3.97042 -31.02906,9.42704 -57.34228,27.95544 -4.74354,3.78519 -9.64746,6.44642 -7.48832,13.27139 0.79573,6.60979 5.81914,12.26586 10.616,18.63846 10.05461,12.33804 41.77324,45.78559 64.88271,62.17552 14.77256,12.49452 33.74794,24.22475 38.09916,38.61397 0.30428,1.0175 1.13655,2.09834 0.0988,2.94813 -8.04447,1.61018 -13.83591,3.65687 -16.28555,6.34984 5.0315,-2.98961 10.91578,-2.40023 18.09983,-5.13558 0.78211,3.28566 2.54907,6.21971 3.12768,9.59566 -3.88762,2.16992 -5.80927,4.99826 -5.36244,8.61289 -5.46201,2.42973 -6.32842,6.06054 -5.18753,9.27431 0.80277,-2.69282 1.51465,-5.24069 6.17973,-6.34504 1.14433,3.44303 3.21243,6.29832 5.05531,9.0428 -0.25816,-0.52694 -0.1761,-1.1587 -0.46301,-1.66304 -1.3366,-2.34976 -2.76035,-4.73606 -3.67573,-7.89008 l 0.22207,-0.25517 5.24893,-0.94487 4.24745,16.55973 c -0.57187,2.16887 -0.0449,3.6076 0.0749,5.31512 -0.92975,3.09218 -0.29395,4.90272 0.12279,6.8931 l -0.0195,4.25688 c -0.4645,1.43723 -0.23944,4.50306 -0.33078,5.59857 -0.10033,1.20528 -0.0973,2.26546 0.64254,3.2033 -2.74747,3.489 -0.45372,3.61703 -0.0195,4.98448 l 0.15124,2.04099 c -3.172,2.61855 -1.69479,4.66823 -0.17954,7.20037 0.37765,1.19375 0.12878,1.86774 -0.015,2.63158 -3.27696,3.35319 -0.37405,4.27036 0.72281,4.8852 0.50808,0.51167 0.46989,1.02379 0.0764,1.53546 -1.82282,2.56285 -0.59493,2.88659 0.17475,3.54815 -3.86201,5.54632 -3.54396,12.51833 -5.85838,17.67472 -6.71102,14.95135 -23.37033,30.15876 -35.55728,43.47087 -5.4975,8.35354 -11.21212,15.77838 -12.01459,28.31438 -3.32654,5.17406 -6.30567,13.01503 -7.05857,17.44322 l -12.28863,30.36959 c -7.22268,40.53592 5.14067,67.79686 16.70619,103.38333 4.32935,18.68324 10.74477,37.12434 15.79424,54.24291 -4.47161,10.67425 -7.82584,21.34431 -11.60834,32.01856 -3.32533,10.31741 -6.75938,20.44016 -9.09956,32.48156 -1.07814,2.90636 -2.89782,10.04054 -3.15597,12.56266 -1.37614,13.44898 5.21134,19.63919 17.04624,30.7429 5.10383,6.5725 9.48874,9.80514 15.34083,16.91387 l 4.0158,5.00335 1.78119,17.06991 c 4.60309,24.63565 11.6931,46.78273 15.5298,70.26881 l 10.65389,67.22139 c 1.93018,8.97153 -8.1138,18.55416 -13.38474,23.11741 -6.61922,7.78048 -21.23485,16.04882 -27.09083,15.79904 -9.23912,3.39482 -2.77518,14.26928 4.28997,8.35295 4.20582,-1.17908 16.44294,2.01493 26.38674,-5.57971 5.33818,-4.07704 17.03157,-7.71729 22.07805,-7.6821 5.41275,0.0374 10.77503,-0.0719 14.99582,-3.33087 3.18847,-2.35395 4.68066,-5.95526 3.68038,-11.4005 -4.46473,-4.87712 -5.51652,-9.861 -7.6207,-15.67611 l -0.74168,-75.72557 c 32.76368,41.74748 36.13049,39.88334 42.16677,59.32651 2.86262,11.01103 3.61583,19.97087 0.79378,24.50643 -2.69057,9.85456 -14.1649,28.78516 -21.30792,31.85788 -6.9244,6.99583 3.85318,12.05054 7.739,3.6946 3.30751,-2.85289 15.74049,-5.15039 21.5204,-16.24782 3.10282,-5.95736 17.5127,-16.14075 22.09692,-18.25107 4.91694,-2.26351 9.72248,-4.63633 12.16104,-9.37823 1.88784,-3.48481 1.71458,-7.38141 -1.50237,-11.88717 -5.9003,-6.00288 -10.36518,-4.11852 -14.58477,-13.1438 -5.69966,-9.28554 -24.4073,-35.62317 -28.29566,-46.54659 -10.8505,-26.07782 -14.94521,-55.58056 -25.07335,-79.39187 -1.04251,-11.39302 -6.29728,-22.27616 -15.05243,-32.02321 -0.32718,-6.88142 -0.27552,-13.78874 0.92601,-21.4638 3.44243,-22.0743 1.43379,-44.81796 -2.64101,-60.98492 14.65082,-26.44858 45.42037,-78.18914 44.10863,-77.08628 7.57023,-14.32872 15.59644,-42.36727 18.39288,-54.78633 7.38366,-14.75982 10.43916,-27.97461 10.67755,-40.18252 2.29076,-1.64672 0.56063,-2.88869 0.58579,-4.30884 0.13327,-0.29634 -0.0344,-0.80921 0.4961,-0.82209 0.31955,-0.65333 1.38811,-0.89906 0.43934,-2.24419 -0.19227,-0.66411 0.0494,-1.04191 0.62368,-1.19525 0.77462,-0.28346 0.74527,-0.96704 0.82688,-1.597 2.59504,0.55914 2.46641,0.70798 8.27747,1.52602 2.2261,0.31341 10.7186,4.83894 15.65726,5.84431 5.54767,1.19135 7.95089,-0.76549 11.5468,-1.52603 26.0633,-18.84316 52.6763,-48.28031 78.15411,-80.29422 l 6.72778,-8.66965 c 5.20865,-6.57999 7.87377,-8.51466 11.55159,-13.34701 3.41773,-4.49033 6.56502,-5.45108 6.33097,-10.59713 -0.13327,-2.93301 -2.23506,-5.36677 -2.71184,-10.31861 l -4.18605,-14.85881 -9.47272,-23.71728 c -4.05473,-15.24005 -10.95322,-26.48482 -18.75661,-39.20471 -2.70614,-5.45018 -5.55694,-11.75524 -8.5184,-18.73759 -1.3372,-8.17789 -5.73784,-17.8866 -8.90115,-26.97747 l -9.85546,-21.99764 c -8.87135,-16.04132 -12.81512,-21.92486 -35.78878,-16.89515 l -3.32144,0.59058 1.69614,-2.74493 c 4.61731,-2.86847 5.5508,-5.17391 7.71998,-8.59882 0.57725,-14.21147 -6.71836,-13.00335 -16.19586,-20.96291 0.015,-0.024 0.0285,-0.0479 0.0419,-0.0704 -4.70506,-15.25683 -14.66204,-32.08115 -21.89838,-7.11532 1.08249,-9.22894 4.16811,-13.12778 2.70722,-22.62596 14.96947,11.27128 16.55659,13.52311 19.80062,28.67346 3.77216,-7.02592 5.13377,-17.70751 4.70102,-17.99591 7.74244,0.58909 4.48583,19.4899 1.29452,19.36127 3.73159,1.13894 11.25241,-15.91375 -1.88032,-23.44325 -0.52859,-6.3744 -0.44728,-15.44565 -5.2916,-17.78343 1.82431,-0.83542 4.60383,-3.21707 3.02375,-4.06312 -4.28668,-2.29525 -1.40758,-4.51564 0.52919,-6.59556 0.39727,-0.42662 0.13776,-1.14763 0.2598,-1.68655 5.64066,-3.48047 0.90909,-7.45718 -0.39217,-11.26828 -2.26935,-3.40111 -6.55498,-4.92579 -12.96891,-5.46156 l 0.96375,-8.82553 c 0.0389,-1.76457 0.26953,-3.4649 -0.7276,-5.57492 -0.37391,-1.49862 -0.90774,-2.94529 -2.35276,-4.08678 -4.87262,-3.82562 -5.86257,0.88753 -7.25233,4.72452 l -2.53233,-3.41113 c -3.07107,-3.75989 -5.38953,-8.27013 -10.7343,-9.75633 -2.13622,-3.02121 -0.68387,-3.9869 -5.1781,-7.25697 -1.98903,-1.04161 -3.99093,-2.1843 -5.98611,-3.27412 -1.98918,-6.55917 -6.02444,-9.25933 -10.12948,-9.32148 z m 1.57799,2.93391 c 2.9366,-0.03444 5.53149,1.4561 7.48384,5.80642 -4.50531,-2.40696 -8.9618,-4.37847 -13.14381,-4.04889 -0.24348,0 -0.48501,0 -0.7276,0.01497 2.22353,-1.01301 4.38611,-1.7436 6.38757,-1.76711 z m 38.77947,26.58051 c 0.59523,0 -1.31818,1.26248 -1.31818,1.93707 0,0.67459 1.38437,2.1828 0.78899,2.1828 -0.59538,0 -2.80168,-1.50821 -2.80168,-2.1828 0,-0.67459 2.73564,-1.93707 3.33087,-1.93707 z M 331.5879,113.14949 c 0.51841,-0.0299 0.82957,0.2071 0.73224,0.97812 l -1.4835,3.30722 c -3.02315,1.45894 -3.45171,3.2563 -5.84894,5.1733 0.89621,-3.50143 1.96058,-6.92274 5.48986,-9.17038 0.41568,-0.15364 0.79917,-0.27044 1.11034,-0.28826 z m -5.65069,2.32925 c 0.033,0 0.0494,0 0.0419,0.0195 -1.5127,3.61373 -2.97628,2.14746 -3.93074,9.36415 -0.16068,1.21471 -3.12528,0.80591 -3.5766,2.92462 -0.0704,0.33408 2.53169,2.69178 2.45203,3.05206 -0.23509,1.06392 -3.66809,2.05491 -3.9827,3.36381 -0.23734,0.98711 2.66317,2.23895 2.37641,3.3782 -0.26669,1.05928 -4.88265,-2.60193 -6.12312,-2.4143 -5.41409,0.81894 -5.09709,2.93914 -1.39366,5.91513 0.92152,0.74063 9.20708,2.22143 8.9058,3.48675 -0.41374,1.73777 -4.24491,2.0964 -4.71989,4.06312 l -3.49619,3.28356 c -0.44878,2.34467 -1.40324,7.33259 -1.40324,7.33259 l -0.2929,7.4744 c -10.25856,-7.98083 -39.69751,3.48257 -26.69386,15.1848 4.01505,-15.99565 31.04913,-14.67118 29.13647,1.13385 -0.60751,7.13613 -4.02823,6.94746 -7.78138,5.9057 -3.90514,-3.92985 -8.02635,-7.10229 -12.94539,-7.48369 -5.23171,3.88552 -9.0774,8.98201 -15.19424,9.41612 -11.28565,-9.76951 -22.88126,-20.21001 -33.14761,-27.77111 -1.17833,-0.55675 -1.24646,-1.22445 0.16067,-2.03635 6.40599,-5.20012 14.23453,-10.16438 22.14408,-15.11397 8.8727,-6.11294 17.37673,-12.67152 27.44977,-17.34394 10.68383,-4.93701 16.38962,-7.88994 26.94902,-11.70747 -0.0569,0.28391 4.56955,-1.41282 5.06474,-1.4269 z m 8.60826,1.05359 c 0.43904,-0.015 -0.24483,0.9037 -0.45357,1.4269 -3.05176,2.6142 -5.82454,5.29085 -9.96418,7.66322 l 0.43471,-1.67247 6.98759,-5.65533 c 1.86669,-1.30845 2.69506,-1.75274 2.99545,-1.76232 z m -0.789,3.00953 c -0.65527,0.92316 -0.86536,1.59955 -2.58441,3.11359 -0.69001,-0.50523 -2.02466,2.82415 -7.13882,4.59695 3.42251,-2.66092 6.5433,-5.17076 9.72323,-7.71054 z m 112.09075,4.34193 c 0.12129,0 0.24647,0 0.37331,0.015 4.43193,0.96868 4.32396,3.98764 4.97969,6.66159 l -3.87894,-0.8125 c -3.50682,-2.11766 -3.48451,-2.68473 -3.9261,-3.45366 -0.41014,-1.73372 0.64509,-2.43811 2.45204,-2.40966 z m -115.87519,2.36234 c -1.55373,2.03905 -3.61299,3.57106 -4.59695,6.17973 -0.85054,0.14989 -2.15809,1.57679 -2.4426,0.14225 -0.4943,-1.03577 0.0854,-2.25003 0.2881,-3.4017 2.58246,-0.31146 4.51175,-1.92329 6.75145,-2.91983 z m 97.04293,9.91685 c 12.34241,8.46331 12.53124,15.18944 10.73912,12.6242 -1.75483,-5.44104 -9.85429,-3.8078 -9.74213,-7.2995 0.0254,-0.78525 -0.63087,-4.59665 -0.99699,-5.3247 z m -93.76402,7.52157 c 0.0479,0 0.0764,0.015 0.0764,0.0479 -1.11229,1.46718 -12.44885,10.85889 -15.80848,6.41602 4.26962,2.79061 14.75878,-6.32707 15.73286,-6.46319 z m 95.29487,1.29453 c 4.18111,2.53814 8.33093,5.34761 12.26032,10.15315 l 3.2599,4.20956 c -5.53314,-5.20041 -11.4881,-11.66704 -15.32645,-11.7831 0.0584,-0.9019 0.12129,-1.802 -0.19377,-2.57961 z m -94.49165,9.5389 c 0.024,0 0.0374,0.0165 0.0374,0.0479 -1.11214,1.76097 -13.59693,16.77132 -16.95656,11.43824 4.33954,3.40439 16.18269,-11.46654 16.91882,-11.48556 z m 11.24447,13.54542 c 1.67577,4.02643 3.35124,4.40767 5.31991,6.3687 2.51971,2.51013 5.51966,4.8283 9.62395,2.92462 -0.22925,0.23405 0.96704,2.56914 0.74647,2.80633 -0.22057,0.23719 -0.50209,1.96732 -0.71337,2.20645 -8.50434,9.61572 -11.54216,17.58488 -11.54216,17.58488 -2.4137,6.65246 -0.97737,24.35548 -9.86025,26.63246 10.11481,-3.8659 1.19644,-23.82479 8.68372,-27.5727 0.13327,-3.67962 0.68627,-2.66032 1.75289,-6.16086 1.75857,-9.4802 -2.10733,-19.17813 -4.01116,-24.78988 z m 9.31219,10.498 c 1.63759,5.40661 -3.00773,12.11717 -3.86006,14.42426 l 3.18907,-4.73876 c 1.64657,-2.27459 2.89557,-4.70806 4.5357,-6.29787 -2.85634,0.50822 -2.06106,-1.57664 -3.86471,-3.38763 z m -62.28423,5.97668 c 6.18302,1.85486 13.26076,13.69456 25.38511,5.26779 -9.41371,14.10321 -23.31686,-3.65177 -30.3648,-2.48977 1.52423,-1.01735 2.74703,-2.23311 4.97969,-2.77802 z m 133.35611,0.2598 c 0.015,0 0.0255,0.0255 0.0284,0.0764 0.29395,4.71944 3.52018,18.62079 6.28847,22.46543 -3.19596,-1.95833 -5.54425,-5.45048 -9.87435,-5.36722 l -0.57172,-7.94669 c 1.05029,0.28571 3.81394,-9.26563 4.1293,-9.22714 z m -62.19439,1.62051 c 3.59427,3.94108 3.81125,9.44367 5.28681,14.36271 -3.75389,-2.16093 -4.13319,5.241 -5.96245,8.53264 l 2.03156,-11.7831 c 1.05868,-2.94783 -0.34366,-7.12894 -1.35592,-11.11225 z m -75.30989,3.34031 c 3.11555,0.0434 5.37157,1.50671 7.04898,3.9309 0.47693,0.45821 0.33827,0.77162 -0.35893,0.9591 -1.96447,-0.0973 -3.92715,0.74556 -5.89162,2.27249 l -2.16857,-0.74647 c -4.56266,-2.18085 -5.12614,-2.51672 -7.58776,-3.72769 3.59173,-1.90008 6.53462,-2.72232 8.9579,-2.68833 z m 152.43874,1.29453 c 5.01158,2.85424 12.2437,4.49602 14.75009,8.71681 l -11.01776,-1.33705 -3.54336,0.47723 c -2.75062,-2.11586 -1.41776,-4.99496 -0.18897,-7.85699 z m -147.23698,4.72453 c 0.44219,0 0.33977,0.71217 1.50716,0.6662 -1.6319,1.1906 -0.43351,1.73881 -1.17653,2.68354 l -3.20793,-1.38902 c 1.8598,-1.5386 2.53334,-1.96342 2.8773,-1.96072 z m 32.57126,1.60164 c 1.0783,0.35759 2.66018,0.21294 1.05359,3.25526 -10.72502,5.73184 -2.31727,-0.45372 -1.05359,-3.25526 z m 120.19811,3.31201 h 0.47723 c 6.72778,0.0464 6.90822,2.43961 10.75795,4.73396 -1.89574,5.64036 -4.08842,7.71729 -6.22704,10.4414 -0.70334,-5.70744 -3.45082,-10.76844 -9.00507,-14.94386 1.53995,-0.14675 2.85724,-0.22117 3.99693,-0.2315 z m -23.83082,4.72932 c 6.64561,4.28938 6.03658,7.22957 8.43354,10.44125 -3.24705,-3.09608 -5.85841,-0.56408 -8.43354,-10.44125 z m -52.19248,0.91178 c 0.85638,2.80034 1.29228,5.59993 0,8.40026 -3.06613,24.06109 -3.84299,-7.04808 0,-8.40026 z m 68.19475,3.70883 h 0.16532 c 1.46149,0.0374 2.71109,1.14133 4.14353,1.32282 2.5296,3.04681 2.38585,6.50572 1.62515,10.05866 l -7.28048,-2.68354 c 1.64268,-2.39453 0.1758,-4.79161 -1.43633,-7.18614 1.04625,-1.10001 1.95129,-1.4862 2.78281,-1.5118 z m 40.61723,92.52145 c 11.85677,20.76376 19.35813,43.27082 28.92862,64.9489 4.16974,6.46858 6.36436,13.16357 1.65825,20.64651 l -22.15816,37.21553 c -12.03541,18.82728 -25.84811,34.09414 -39.34172,50.00489 -2.04878,-0.14375 -3.98794,-0.73045 -6.397,0.56707 -0.73299,-1.34873 -1.98229,-2.6148 -4.37024,-3.70882 -1.21201,-1.43454 -2.12095,-2.95682 -4.16718,-4.15296 -0.59972,-2.00775 -2.0359,-3.49544 -3.64728,-4.87098 -0.47559,-0.85338 -0.85129,-1.90772 -1.20007,-3.01432 -0.6099,-1.37344 -1.12397,-2.74643 -1.47886,-4.11987 -0.38334,-2.83807 -1.47631,-5.61295 -4.6537,-8.1972 0.22985,-3.54052 1.34005,-7.96047 2.30094,-12.23188 3.28641,-9.86279 9.211,-18.5269 15.25087,-27.138 5.26465,-8.94622 10.29166,-18.15898 13.79114,-29.12238 l 1.32762,-2.3008 9.94051,-29.34446 c 1.8917,-3.16765 3.53617,-7.81147 5.1781,-12.4776 l 8.12159,-32.47677 0.91657,-0.22686 z"
       inkscape:connector-curvature="0"
       style="fill-rule:evenodd;stroke:#ffffff;stroke-width:0.20214" />
    <path
       id="path6"
       d="m 266.55409,453.20547 c 0.56498,-0.31461 1.06842,0.0479 1.54325,0.72371 l 0.0255,0.88992 c 0.41988,0.24139 1.07919,0.12279 0.82433,1.37658 0.81804,-0.71187 1.25454,0.027 1.62635,1.00972 0.85788,-0.27403 1.41058,0.57097 2.0091,1.24735 1.11528,1.12562 1.48185,-0.62307 2.55221,1.64523 1.64388,0.15767 2.36129,1.13864 3.22905,1.98618 2.07948,0.37421 2.01554,0.20141 2.93571,1.90637 1.87672,-0.56692 2.19882,0.89921 2.992,1.74915 0.024,-0.46151 3.01567,-0.37496 3.04876,2.0636 2.22548,-0.61679 2.94259,0.98126 2.92418,1.68146 2.19193,-0.26564 2.26994,0.83646 3.05969,1.47811 2.29435,0.3462 2.30648,1.50371 3.15043,2.0636 2.82474,-0.16561 1.88406,1.08054 2.75481,1.64762 2.37732,0.45132 1.57754,0.0539 3.30827,1.70317 -0.3233,-0.71517 3.29763,0.24468 3.01492,1.58937 1.82835,-0.0764 2.34706,0.74751 2.75496,1.64762 1.10001,-0.0943 3.00743,-0.26595 3.74851,1.73701 0.99249,-0.12578 2.65658,0.32734 3.20658,1.49997 1.79182,-0.19871 2.20766,0.85339 3.09369,1.47811 1.26397,-0.0898 1.76127,0.28107 1.67097,1.00403 l 1.37898,-0.4371 2.8544,-1.1921 1.60569,3.6618 c 4.40632,0.26535 6.44447,3.03049 6.20713,3.32833 1.97151,-1.77205 2.78715,0.38634 4.21854,0.70783 1.8032,-1.14598 3.15164,-0.26998 4.52343,0.70394 2.06465,-0.86746 3.73997,-0.78944 4.81827,0.67564 1.78957,-1.54145 3.38717,0.0195 5.10337,0.62233 1.7475,-0.83436 3.54082,-1.26952 5.37831,0.54447 1.83764,-1.09447 3.71945,-1.30621 5.6438,0.44159 2.25841,-1.20962 4.09156,-0.56813 5.89895,0.31401 2.09475,-1.1367 4.15012,-1.17488 6.14454,0.16172 2.37372,-1.0458 4.64577,-1.59236 6.38008,-0.015 2.4143,-1.65795 4.46458,-0.73973 6.6059,-0.21743 2.49306,-1.76292 4.60219,-0.83497 6.82182,-0.44384 4.56446,-1.92374 4.65924,-0.42467 7.02772,-0.69555 2.7048,-1.9212 4.78832,-0.61919 7.22373,-0.97168 2.98228,-2.00086 7.5331,-1.64163 7.41017,-1.27266 0,0 1.77984,-0.72566 1.8613,-1.13296 2.25422,1.73522 0.95251,4.35946 0.88108,6.67598 0.0674,1.39874 0.61455,3.1702 -0.84485,3.38133 -0.39651,0.17086 -0.82223,0.31252 -0.34021,1.36206 l -0.60796,2.04219 c -0.59552,0.41165 -0.65856,0.91194 -0.17025,1.50417 0.73074,1.95713 0.0734,2.72396 -0.41165,3.63964 -0.85203,1.4844 -2.23236,2.04414 -3.80331,2.2707 -0.42706,3.06403 -2.44095,2.42328 -4.25628,2.18145 -1.75019,1.39126 -3.37146,2.60657 -4.40603,0.40835 -1.6873,2.21229 -3.8093,2.30289 -4.41291,0.18043 -1.90997,0.76384 -2.55191,2.08053 -5.13453,0.82628 -1.63503,1.89425 -3.64997,1.31984 -5.63451,0.94308 -1.58922,0.77238 -3.27068,1.38348 -5.57312,0.90804 -1.79946,0.92916 -3.57091,1.88152 -6.42545,1.93123 -2.96685,2.29915 -4.21825,1.67173 -5.71403,1.46134 -1.6605,2.32565 -3.75629,2.28358 -5.38175,1.37628 -1.28853,1.18192 -3.22171,1.93408 -5.59304,2.39409 -2.24598,2.23626 -5.757,3.20719 -8.82373,4.62255 -14.50661,6.40015 -23.57607,15.33769 -32.80995,24.19841 -6.20578,-6.04466 -10.52915,-13.73649 -13.85119,-22.30461 -3.4303,-7.21101 -6.48041,-11.75944 -9.56151,-16.5253 -1.6879,-1.1912 -3.41713,-2.13398 -4.75672,-5.41394 -3.30078,-1.25754 -3.29748,-2.70929 -3.63845,-4.14098 -2.70824,-0.68028 -2.95637,-2.30678 -3.39242,-3.86111 -3.48001,-0.74198 -5.1474,-2.14297 -4.65415,-4.32981 -3.31709,-0.2342 -4.02058,-2.33539 -3.55743,-5.26974 -2.52661,0.55569 -3.32818,-0.75725 -3.70613,-2.5293 -2.5883,-0.43456 -3.58873,-1.66319 -3.28745,-3.54246 -2.57138,0.33048 -2.63577,-0.57711 -2.97029,-3.1705 -1.88901,-0.44773 -1.98185,-0.86072 -1.75708,-2.4444 -1.59401,-0.26834 -2.30559,-1.24272 -2.09325,-2.95607 -0.58056,-0.51901 -1.69045,-0.31566 -0.39637,-3.39062 l -0.22911,-1.95908 c 1.02619,-6.47772 6.63105,-17.40623 6.73393,-17.38048 z"
       inkscape:connector-curvature="0"
       style="fill:#ffffff;fill-rule:evenodd" />
    <path
       id="path8"
       d="m 454.76244,218.985 c -1.09746,0 -2.31682,0.28032 -4.52612,2.87251 -6.00303,6.36916 -3.99139,11.93359 -5.46156,17.84947 l 2.51822,59.71869 c -24.84757,4.34224 -44.9842,11.44243 -57.06364,26.50968 -2.35799,0.37077 -4.12166,1.25185 -4.69622,3.15134 l -3.93075,-1.03473 c 0.60377,-1.72263 0.25547,-3.35153 -1.69149,-4.81901 -13.83022,-11.93149 -22.50182,-28.02672 -48.94187,-32.01856 3.63141,-16.95356 11.7265,-33.45459 18.97853,-49.24435 -1.1638,-2.46746 -2.47554,-4.54244 -6.14663,-0.49131 -8.29994,17.78059 -11.47104,34.26994 -16.62113,50.04742 -0.35953,0.87195 -1.11828,0.13627 -1.50716,0.9591 -2.80812,5.93999 -5.81585,12.43029 -7.10094,20.03706 l 0.42541,4.09067 c -0.7559,4.33325 -0.16786,4.90317 -0.1153,6.97321 l 0.0794,5.42188 c -0.38993,2.84616 -0.3245,5.51023 0.18882,7.99506 -2.3577,3.60745 -0.81699,3.72664 0.10332,4.40063 l 0.27897,2.17486 c -0.81505,1.29123 -2.95786,3.65822 -2.0076,4.72543 2.55611,2.87087 2.97015,5.77333 0.92317,6.37469 -1.13924,0.33468 -1.08264,2.6467 0.015,2.97374 3.13262,0.93544 2.23461,2.21529 1.45086,2.80318 -0.5822,1.65241 -1.39665,2.95637 0.46495,3.1425 3.07496,-4.92204 18.59219,0.33722 30.19784,-1.6578 26.00534,-10.92836 46.82765,1.55028 65.9083,6.56472 14.3891,2.00535 34.2842,0.34006 37.44841,9.8285 L 465.59991,345.8604 453.9706,300.06358 451.065,274.91925 c 1.13759,-10.65044 -2.22098,-23.54912 -3.83641,-35.57599 -0.33228,-9.27341 4.56281,-14.47712 8.62233,-20.33475 -0.37106,0.015 -0.72071,-0.0225 -1.08668,-0.024 z m -125.26285,69.78679 h 0.10332 c 0.0779,0 0.15214,0.021 0.22686,0.0479 0.59718,0.21547 0.82419,1.10569 0.50553,1.98918 -0.31866,0.88349 -1.06122,1.4248 -1.6584,1.20947 -0.59718,-0.21533 -0.82418,-1.1057 -0.50553,-1.98903 0.26145,-0.72476 0.80966,-1.2213 1.32762,-1.25679 z m 120.79348,6.69948 c 1.21681,0 2.20167,1.13505 2.20167,2.53709 0,1.40204 -0.98486,2.54173 -2.20167,2.54173 -1.21681,0 -2.20166,-1.13969 -2.20166,-2.54173 0,-1.40204 0.98486,-2.53709 2.20166,-2.53709 z"
       inkscape:connector-curvature="0"
       style="fill:#ffffff;fill-rule:evenodd" />
  </g>
</svg>
