<?xml version="1.0" encoding="UTF-8" standalone="no"?>
<svg
   xmlns:dc="http://purl.org/dc/elements/1.1/"
   xmlns:cc="http://creativecommons.org/ns#"
   xmlns:rdf="http://www.w3.org/1999/02/22-rdf-syntax-ns#"
   xmlns:svg="http://www.w3.org/2000/svg"
   xmlns="http://www.w3.org/2000/svg"
   xmlns:sodipodi="http://sodipodi.sourceforge.net/DTD/sodipodi-0.dtd"
   xmlns:inkscape="http://www.inkscape.org/namespaces/inkscape"
   viewBox="0 0 320.19861 522.54065"
   id="svg2"
   version="1.1"
   inkscape:version="0.48.4 r9939"
   width="100%"
   height="100%"
   sodipodi:docname="left1.svg">
  <metadata
     id="metadata12">
    <rdf:RDF>
      <cc:Work
         rdf:about="">
        <dc:format>image/svg+xml</dc:format>
        <dc:type
           rdf:resource="http://purl.org/dc/dcmitype/StillImage" />
      </cc:Work>
    </rdf:RDF>
  </metadata>
  <defs
     id="defs10" />
  <sodipodi:namedview
     pagecolor="#ffffff"
     bordercolor="#666666"
     borderopacity="1"
     objecttolerance="10"
     gridtolerance="10"
     guidetolerance="10"
     inkscape:pageopacity="0"
     inkscape:pageshadow="2"
     inkscape:window-width="1440"
     inkscape:window-height="839"
     id="namedview8"
     showgrid="false"
     inkscape:zoom="1.2774294"
     inkscape:cx="407.54645"
     inkscape:cy="324.00358"
     inkscape:window-x="-2"
     inkscape:window-y="-3"
     inkscape:window-maximized="1"
     inkscape:current-layer="svg2" />
  <g
     id="g2984">
    <g
       id="g4"
       transform="translate(-217.43412,-131.60723)">
      <path
         id="path6"
         d="m275.45081,641.23309c-2.82611-23.92342-2.97412-28.25904-1.61427-47.28723 2.30631-32.27182 10.36168-53.41719 29.31331-76.94753 12.03652-14.94453 20.93773-27.53922 20.93773-29.62568 0-.85898-1.84372-2.65089-4.09715-3.98203l-4.09715-2.42024-4.89545,5.04068c-4.26292,4.38938-5.46381,4.91585-9.29427,4.07454-3.5552-.78086-5.11069-.30323-8.11073,2.49043-5.18418,4.82758-19.77158,14.51143-24.65802,16.36924-5.73191,2.17928-10.2395.69796-11.3509-3.7302-.90942-3.62345.27834-5.27483 6.27744-8.72777 1.17613-.67695 1.55717-2.18959.99653-3.95599-.8123-2.55936-1.74619-2.78646-8.8852-2.16065-14.23443,1.24781-30.68821-6.84867-36.02622-17.72757-2.80289-5.71231-2.9756-7.36054-1.90192-18.15047 .68429-6.8767 3.21875-18.03288 6.02655-26.52762 3.26573-9.8802 6.71866-26.04047 10.59039-49.56476 8.5035-51.6665 15.00699-74.1362 23.08151-79.74713 2.08012-1.44546 4.8833-3.63216 6.22931-4.85934 3.07448-2.80308 11.90158-30.21952 14.79015-45.93733 2.76308-15.03493 20.12697-68.141 27.3903-83.77104 5.85152-12.59193 10.02235-17.93545 17.93483-22.9775 8.0946-5.15809 21.13842-9.38357 29.32-9.49806 8.20939-.11489 21.19089,3.5799 23.85461,6.78948 .89029,1.07275 2.20122,1.95045 2.91316,1.95045 3.28683,0 18.12505,18.29234 21.78408,26.85508 .89731,2.09986 2.67074,11.45063 3.94095,20.77947 1.89385,13.90915 2.05496,20.00604.8952,33.87921-.77884,9.31655-.91614,20.36787-.30559,24.59672 .60978,4.22347.55889,11.7956-.1131,16.82694-1.18054,8.83917-4.99727,20.44095-6.29704,19.1412-.34905-.34905.28844-2.84385 1.41661-5.54397 2.63579-6.30831 5.09114-21.49349 3.95438-24.45585-.53463-1.39323-1.57697,1.14767-2.67103,6.51118-2.39738,11.75292-8.56304,24.42464-15.89756,32.67283-6.62836,7.45408-6.48152,7.9474 3.25802,10.94575 2.92512.9005 6.9216,3.54256 8.88108,5.87126 3.35368,3.98563 3.50938,4.85163 2.6543,14.76327l-.90836,10.52929 10.17777,9.91764c5.59777,5.45469 14.11776,12.6232 18.93329,15.93002 9.62359,6.60846 10.79374,8.95279 9.77269,19.579-.77905,8.10768-6.58597,17.42814-11.65015,18.69916-4.18608,1.05065-4.37745,4.55276-.64818,11.86273 1.50669,2.95334 3.73703,9.75583 4.95632,15.11666l2.2169,9.74697 17.03368.77627c9.36854.42694 19.39066,1.55868 22.27139,2.51495 4.2113,1.39798 5.89227,1.38839 8.57794-.04895 5.18763-2.77632 22.80517-.67715 23.92486,2.85072 .4636,1.46068 1.35494,2.65578 1.98076,2.65578 1.86437,0 12.66995,11.38106 11.93484,12.57047-.37257.60283 3.36541,4.46102 8.30662,8.57374s9.02108,7.88169 9.06638,8.37545c.26978,2.94168-4.7882,1.7654-10.20991-2.37439-3.462-2.64343-6.9123-4.80623-7.66735-4.80623s-3.3059,1.62656-5.66852,3.61459c-4.06044,3.41663-4.2957,3.45938-4.2957.78049 0-5.43518-3.07832-4.65852-9.62863,2.42931-3.62795,3.92564-7.50073,7.14138-8.60619,7.14612s-3.82086.95302-6.0342,2.10732-6.29719,2.38766-9.07523,2.74079c-9.21663,1.1716-44.06449,4.9158-49.03099,5.26808-4.65382.33012-4.9305.64601-5.80666,6.62949-.50598,3.45557-.57224,13.85818-.14722,23.11692 .67831,14.77664.41205,17.87631-2.17848,25.3619-5.04046,14.56481-6.27065,31.20726-5.31791,71.94261l.87353,37.34809h-68.92626-68.92624l-1.52563-12.91476zm-3.92725-136.99929c9.15115-3.82359 16.22587-9.12021 15.32336-11.47212-.62172-1.62015-1.95813-2.01682-4.84776-1.4389-5.58859,1.11771-22.13635,10.85961-22.13635,13.03197 0,2.35485 5.88134,2.29383 11.66075-.12095zm17.65925-51.18939c0-.7393 2.199-1.34417 4.88667-1.34417s4.88667-.62829 4.88667-1.39619 1.51486-1.39619 3.36636-1.39619c3.23934,0 4.93902,1.60084 13.19603,12.42868 5.9271,7.7725 10.21699,4.63332 6.67447-4.88413-12.19156-32.75421-12.66554-33.67246-15.97465-30.94796-1.85957,1.53105-2.01508,1.25833-1.18435-2.07707 1.04558-4.19801-.54753-5.04427-3.28548-1.74524-.95596,1.15186-2.34582,2.09429-3.08859,2.09429s-2.52979,1.41364-3.97116,3.14143c-1.62628,1.94943-2.63831,2.42253-2.66713,1.24681-.02757-1.12427-.91948-1.5596-2.19359-1.07068-1.22788.47118-2.4914-.0732-2.95125-1.27154-.44226-1.1525-1.83212-1.92727-3.08857-1.7217-1.65775.27124-2.40504-.87834-2.72396-4.19034-.45854-4.76209-3.05099-4.96613-3.05099-.24015 0,1.49049-.69821,2.70998-1.55157,2.70998-1.01032,0-1.2389-1.6667-.65526-4.77779 .51985-2.77105.29191-5.15134-.54271-5.66717-.79147-.48915-1.54465.24721-1.67374,1.63637s-.60031-1.24398-1.04714-5.85141-1.44072-8.23955-2.20863-8.07136c-1.69334.37085-7.81511,21.06549-11.91947,40.29379l-3.00373,14.07195 4.42757,4.42757c2.47548,2.47547 5.88283,4.42757 7.72825,4.42757 1.81538,0 3.68821.62704 4.16186,1.39343 .9581,1.55022 17.45409-9.05273 17.45409-11.21878zm183.56321,7.10231c3.0928-5.98082 2.78192-12.24002-.66224-13.33315-1.53581-.48745-2.79238-1.71308-2.79238-2.72363 0-2.69124-4.64465-3.51879-19.86912-3.54017l-13.58626-.01906-.85008,3.83953c-.46756,2.11174-1.47923,5.90736-2.24816,8.43472-2.44434,8.03403-1.43149,8.65024 14.5198,8.83379 11.56991.13316 20.42288,1.07895 23.04511,2.46202 .17226.09085 1.27176-1.68847 2.44333-3.95405zm-90.65308-168.24683c5.16019-5.16018 4.11538-7.19337-1.35884-2.6443-2.63223,2.18737-4.83123,4.44825-4.88667,5.02418-.20553,2.13515 2.92241.94324 6.24551-2.37988zm-7.11422-5.10704c.8107-.75746.44797-1.23927-.93295-1.23927-3.35299,0-6.67629,1.51116-6.67629,3.03585 0,1.47479 5.497.17692 7.60924-1.79658z" />
    </g>
    <rect
       transform="matrix(0.74555488,-0.66644423,0.63599305,0.77169479,0,0)"
       inkscape:transform-center-x="0.029216125"
       inkscape:transform-center-y="-1.98058"
       ry="0.88732839"
       y="322.12903"
       x="19.812922"
       height="3.2457521"
       width="3.2907484"
       id="rect2995"
       style="fill:#000000" />
  </g>
</svg>
