<?xml version="1.0" encoding="UTF-8" standalone="no"?>
<svg
   xmlns:dc="http://purl.org/dc/elements/1.1/"
   xmlns:cc="http://creativecommons.org/ns#"
   xmlns:rdf="http://www.w3.org/1999/02/22-rdf-syntax-ns#"
   xmlns:svg="http://www.w3.org/2000/svg"
   xmlns="http://www.w3.org/2000/svg"
   xmlns:sodipodi="http://sodipodi.sourceforge.net/DTD/sodipodi-0.dtd"
   xmlns:inkscape="http://www.inkscape.org/namespaces/inkscape"
   viewBox="0 0 295 878"
   id="svg2"
   version="1.1"
   inkscape:version="0.48.4 r9939"
   width="100%"
   height="100%"
   sodipodi:docname="right1.svg">
  <metadata
     id="metadata12">
    <rdf:RDF>
      <cc:Work
         rdf:about="">
        <dc:format>image/svg+xml</dc:format>
        <dc:type
           rdf:resource="http://purl.org/dc/dcmitype/StillImage" />
      </cc:Work>
    </rdf:RDF>
  </metadata>
  <defs
     id="defs10" />
  <sodipodi:namedview
     pagecolor="#ffffff"
     bordercolor="#666666"
     borderopacity="1"
     objecttolerance="10"
     gridtolerance="10"
     guidetolerance="10"
     inkscape:pageopacity="0"
     inkscape:pageshadow="2"
     inkscape:window-width="1440"
     inkscape:window-height="839"
     id="namedview8"
     showgrid="false"
     inkscape:zoom="0.26292336"
     inkscape:cx="164.80001"
     inkscape:cy="448.79999"
     inkscape:window-x="-2"
     inkscape:window-y="-3"
     inkscape:window-maximized="1"
     inkscape:current-layer="svg2" />
  <g
     transform="matrix(0.99959647,0,0,0.99959647,-228.34827,-87.933301)"
     id="g4">
    <path
       d="m 416.96246,88.81747 c -7.87694,0.0074 -16.16656,1.46872 -25.60553,6.94323 -21.49785,17.86545 -24.13119,44.40401 -25.77817,73.6519 1.83643,18.30523 4.49299,35.34399 -3.10719,54.75942 -8.71983,1.05396 -18.29705,4.21977 -28.02225,2.91538 -9.80925,-1.31565 -21.46145,0.40028 -26.25767,5.37046 -15.20266,20.83795 -21.67897,47.82664 -30.26632,74.74516 -8.58735,26.91852 -13.4166,48.5499 -13.57957,52.61124 -2.10496,11.46905 -1.86568,24.77292 2.20572,37.91921 8.43928,21.84348 16.31097,41.99244 25.31784,65.53869 0.58571,1.34865 -2.48823,2.31621 -2.10982,3.79767 0.37841,1.48146 1.13794,3.31437 1.36179,4.87177 0.22385,1.5574 1.14385,3.29532 1.2659,4.87177 0.12205,1.57645 2.66978,3.14135 2.74276,4.67997 0.14597,3.07719 0.53941,6.02734 0.80557,8.61189 0.26616,2.58455 0.70694,4.80774 1.51523,6.44455 l 7.53782,10.72171 c 1.17624,1.78362 5.61823,-0.74389 6.387,0.69049 1.62415,3.03039 6.06552,2.04707 7.67207,0.46033 1.14327,-1.12916 2.96904,1.5061 4.52652,1.34261 1.55748,-0.16349 3.08796,-0.45416 4.56489,-0.93983 -5.72849,16.57168 -14.90233,33.14335 -17.18545,49.71503 -6.54683,21.89101 -16.1625,32.99059 -19.6405,65.67294 -0.97388,12.88908 -0.053,25.77817 0,38.66725 l -7.36519,24.55063 -16.57168,46.03244 c -14.57127,43.67163 -15.30597,84.75906 -18.41297,130.11835 l -4.91013,9.20645 v 14.11666 c -2.70904,22.3781 -12.21644,43.79004 -15.30579,66.11412 0.61852,1.60444 0.87814,3.53928 2.28245,4.98687 2.25333,2.32243 6.08863,4.07248 8.76533,6.31017 3.33333,2.30285 7.22628,1.76881 11.12451,1.24674 40.25771,-12.24604 14.93585,-25.49648 20.13919,-39.37693 0.73331,-12.93851 1.0172,-25.77 9.82026,-38.05344 1.71863,-6.95596 -0.9268,-13.91201 -2.45507,-20.86806 4.37531,-32.55786 35.84302,-93.00529 37.43972,-100.04381 l 11.66154,-48.4875 c 12.03064,-15.3477 17.36279,-38.88244 24.55064,-60.14905 l 32.52959,-64.44541 15.88119,-38.55216 c 7.33537,-0.0444 14.16724,-7.90662 17.26217,-12.3904 l 7.36519,0.61376 c -0.64628,7.77437 0.0435,15.54874 7.97895,23.32311 l 20.25427,98.81629 12.27532,28.23323 8.59272,39.28101 11.66155,77.94825 1.22753,31.30206 -3.06883,11.04782 0.61377,22.70935 -3.6826,28.84698 -8.27042,23.60814 c -1.00189,3.5519 -0.17663,8.47445 2.13276,10.58294 15.63414,15.20878 38.99623,-0.26302 41.51908,-8.6364 0.47105,-13.63506 0.93563,-24.01512 3.06883,-37.65027 l -0.39677,-26.5717 -1.8413,-3.68258 v -9.20646 l -2.45505,-13.50288 c 3.03126,-31.11001 7.527,-61.73183 7.36518,-93.90617 -0.39969,-26.7012 -4.93763,-52.36779 -12.27531,-77.3345 -1.78575,-16.84952 -3.70391,-33.64025 -5.15948,-50.65482 -1.04529,-12.21867 -1.84973,-24.55039 -2.20571,-37.11368 0.86564,-8.38211 1.70947,-16.06014 2.35916,-23.36146 2.13096,-23.94807 2.1602,-43.77708 -6.08012,-70.54472 l -1.80293,-4.91012 3.68259,-2.45506 c 2.71841,-0.61004 2.2679,3.30698 8.59272,-2.45506 1.12647,0.94513 3.06583,0.67824 6.50208,-1.8413 2.71389,-6.77062 8.78856,-12.60828 7.32683,-20.94476 -4.75671,-3.68773 -2.08122,-2.56495 -15.67021,-9.74354 -1.64608,-7.21112 0.19471,-13.56095 0.61377,-20.25426 0.12696,-11.42811 -0.95807,-22.29746 -3.81685,-33.23926 -3.7867,-14.70111 -6.30642,-29.39411 -9.686,-44.09524 -4.28892,-15.11164 -3.05012,-42.20227 -8.91878,-66.97719 -7.01872,-11.62309 -14.5355,-11.88381 -15.95791,-12.94663 l -8.26667,-23.18884 c 2.65566,4.5506 4.78043,9.10571 7.97896,13.6563 l -4.29636,-14.27006 c 3.90322,7.10294 11.93725,13.86119 9.62846,21.4818 2.40347,-6.11916 -1.22131,-11.13999 -4.18129,-16.28397 2.91196,4.6022 7.49173,8.79315 11.12451,13.21514 -5.39499,-7.56977 -10.74079,-15.13956 -11.04778,-22.70933 l -3.6826,-18.41298 c 2.28421,5.82563 1.80967,11.64751 7.19257,17.47315 -3.43015,-6.64399 -1.31587,-13.28421 -1.66868,-19.92821 1.30916,6.75143 2.66291,13.50285 7.36519,20.25427 -4.81926,-9.20648 -5.15796,-18.41297 -6.75142,-27.61946 -1.81181,-6.40291 -3.80225,-12.79645 -4.56489,-19.19936 -0.99184,-8.32746 -0.50319,-16.66431 -0.959,-24.99177 l 0.61376,-31.91582 c -2.18923,-9.61567 -3.7619,-19.23134 -12.27532,-28.847 C 449.96245,98.2711 442.47331,94.19578 434.93429,90.23681 428.96712,89.6849 423.08898,88.8117 416.96246,88.81747 z m 51.72896,156.70209 c 0.35749,0.79844 0.75674,1.59352 1.18916,2.37834 -0.44639,-0.78166 -0.85953,-1.56749 -1.18916,-2.37834 z m -155.30193,80.30741 c 1.15731,16.92592 0.14275,33.69059 2.7044,50.61651 4.27958,17.0307 8.89995,31.06773 12.44794,49.56158 0.12293,9.2406 0.98964,16.64272 -5.19783,41.65936 l -3.60588,-10.03123 c -0.97853,-1.53542 -1.64696,-3.13532 -4.98684,-4.27718 -3.24947,-12.54539 -8.42031,-23.42975 -9.87779,-36.30809 -1.68355,-14.87588 -5.06682,-25.81997 -8.88043,-38.16856 0.8265,-12.01133 5.68067,-21.59203 9.45583,-34.3517 l 7.9406,-18.70069 z m 152.82769,59.97644 5.84994,22.13392 c 1.63576,11.86066 3.8217,23.36856 11.71909,31.24452 l -4.98684,13.23433 c 0.0441,-3.76131 0.0797,-7.51663 -0.44114,-11.27795 -2.24232,-5.54721 -4.47074,-9.5549 -6.71306,-12.79318 l -14.3276,-20.40772 c -1.38142,-1.51897 -3.54464,-3.48101 -6.08012,-5.21701 l -0.65213,-5.4088 -1.30425,-5.42799 c 7.96344,-0.6988 13.00348,-3.07803 16.93611,-6.08012 z m 28.636,74.43828 0.86311,6.06093 -3.03047,8.24748 -4.56488,-9.32157 5.21701,-2.6085 1.51523,-2.37834 z"
       id="path6"
       inkscape:connector-curvature="0"
       style="fill-rule:evenodd;stroke:#000000;stroke-width:0.61377001" />
  </g>
</svg>
