<?xml version="1.0" encoding="UTF-8" standalone="no"?>
<svg
   xmlns:dc="http://purl.org/dc/elements/1.1/"
   xmlns:cc="http://creativecommons.org/ns#"
   xmlns:rdf="http://www.w3.org/1999/02/22-rdf-syntax-ns#"
   xmlns:svg="http://www.w3.org/2000/svg"
   xmlns="http://www.w3.org/2000/svg"
   xmlns:sodipodi="http://sodipodi.sourceforge.net/DTD/sodipodi-0.dtd"
   xmlns:inkscape="http://www.inkscape.org/namespaces/inkscape"
   viewBox="0 0 310 912"
   id="svg2"
   version="1.1"
   inkscape:version="0.48.4 r9939"
   width="100%"
   height="100%"
   sodipodi:docname="woman-154781.svg">
  <metadata
     id="metadata16">
    <rdf:RDF>
      <cc:Work
         rdf:about="">
        <dc:format>image/svg+xml</dc:format>
        <dc:type
           rdf:resource="http://purl.org/dc/dcmitype/StillImage" />
      </cc:Work>
    </rdf:RDF>
  </metadata>
  <defs
     id="defs14" />
  <sodipodi:namedview
     pagecolor="#ffffff"
     bordercolor="#666666"
     borderopacity="1"
     objecttolerance="10"
     gridtolerance="10"
     guidetolerance="10"
     inkscape:pageopacity="0"
     inkscape:pageshadow="2"
     inkscape:window-width="1440"
     inkscape:window-height="839"
     id="namedview12"
     showgrid="false"
     inkscape:zoom="0.63429568"
     inkscape:cx="-30.650173"
     inkscape:cy="587.49864"
     inkscape:window-x="-2"
     inkscape:window-y="-3"
     inkscape:window-maximized="1"
     inkscape:current-layer="svg2" />
  <g
     transform="matrix(12.914627,0,0,13.05586,-7058.6552,-9440.6926)"
     id="g4">
    <path
       d="m 554.83777,723.11778 c -0.72803,-0.004 -1.40669,0.26289 -1.71827,1.1124 -0.97293,0.17146 -1.19924,0.85342 -1.44246,1.52415 -1.7825,3.12414 -1.88569,5.31385 -2.43788,7.16785 -0.10022,0.18077 0.0279,0.39789 -0.0392,0.58562 -0.64834,1.81538 0.009,0.57524 0.23424,0.3104 1.4777,-1.7359 0.16094,4.24785 2.66843,4.9623 -0.13943,-0.27718 -0.54797,-0.46999 -0.4013,-0.83658 l -0.14771,-0.30783 c -0.18425,-0.0929 -0.17842,-0.2235 -0.16993,-0.35491 0.0577,-0.24917 0.23723,-0.35279 0.38758,-0.49083 -0.0571,-0.34323 0.0539,-0.2447 0.14901,-0.18823 0.10776,-0.38713 0.18669,-0.79877 0.15752,-1.30326 l 0.16928,0.0915 c -0.15,0.49247 -0.16189,1.12241 -0.22222,1.70455 0.0267,0.52635 0.0209,1.02984 0.17843,1.64965 l 0.0765,0.63527 c 0.1522,-0.0629 0.31564,0.028 0.43071,-0.55489 l 0.0908,0.3902 0.21764,-0.0261 c 0.0695,2.13073 0.0587,4.42256 0.0516,6.70643 -0.59261,2.43774 -1.47397,4.58703 -1.5673,7.52405 l -0.67319,3.23198 -0.44836,2.15029 -1.21566,2.22414 -0.10784,0.24901 0.47516,0.38105 c 0.17922,0.23811 0.27433,0.47626 0.71241,0.71437 0.11964,-10e-4 0.25719,0.0421 0.30195,-0.14642 0.11827,0.21523 0.25125,0.3902 0.48627,0.29411 l 0.29738,-0.0458 c 0.14733,0.17881 0.29449,0.18657 0.44182,-0.068 0.11386,0.11541 0.21079,0.2376 -0.1196,0.52678 -0.36994,0.18108 -0.97644,0.49492 -1.34638,0.52745 -0.87057,0.24831 -2.27548,0.19587 -2.57512,0.76534 -0.58956,1.24884 -0.97406,2.62104 -1.16926,4.10648 l 0.39476,0.34117 0.32418,-0.26274 c 0.045,0.21461 0.32626,0.71303 0.73267,-0.25229 l 0.36927,-0.6392 1.21044,-0.52221 c 2.32201,-0.14598 4.64389,-0.83858 6.9659,0.25163 l 0.0274,1.86597 c -0.97801,3.55758 -0.11057,6.35498 0.13594,9.40834 0.22521,1.92061 1.29835,4.40678 0.64705,5.74305 0.11243,0.83597 0.40103,1.7893 0.0745,2.33263 l 0.0497,1.56796 -0.26274,1.70323 c -0.36629,0.91191 -0.1585,1.64442 0.23137,2.098 0.8339,0.97021 2.62782,1.19031 2.80126,0.81502 0.38337,-0.82952 0.62172,-1.609 0.51894,-2.27185 -0.3459,-1.21244 -0.63663,-2.45465 -0.62417,-3.86006 l -0.26274,-1.62415 c 0.0223,-0.43607 -0.0356,-0.91206 -0.23594,-1.45947 l -0.17974,-1.11043 c 0.0803,-0.76532 0.16119,-1.51627 0.21438,-2.71564 0.17741,-1.79303 0.57696,-3.44954 0.43071,-5.44175 -0.18524,-1.37323 -0.29858,-2.6879 -0.0425,-3.70254 l 0.24052,-1.39726 c 1.31268,0.71295 2.9334,1.5577 4.63326,2.43657 1.60977,1.02852 2.35125,0.73425 3.15877,0.88496 0.89978,-0.40247 1.84403,-0.73441 2.06793,-2.21827 0.10915,-0.78783 0.0395,-1.72892 -0.12674,-2.75289 -0.53161,-2.83964 -0.88404,-5.63791 -2.39603,-8.70378 l -0.14315,-0.14314 c 0.15179,0.0583 0.30377,0.001 0.45555,0.21765 l 0.34444,-10e-4 0.0667,-0.23202 c 0.20806,0.0912 0.45012,0.26377 0.41175,-0.23267 l -0.65293,-0.87973 -0.18431,-0.78429 0.10981,-0.12674 0.14705,0.53724 0.45358,0.88627 c 0.13721,0.19332 0.26848,0.41823 0.5013,0.11436 -0.11156,-1.02711 -0.65635,-1.57014 -0.4843,-2.32937 0.0148,-0.87924 0.10188,-1.70408 -0.0275,-2.69146 -0.01,-0.39228 -0.25133,-0.70167 -0.0118,-1.18298 0.73156,-2.53003 1.48559,-5.03765 1.7575,-8.02731 0.37342,-0.83401 -0.0104,-1.92027 -0.0562,-2.89407 -0.58101,-2.78653 -0.89215,-5.34818 -1.89801,-8.48875 -0.31838,-0.7851 -0.55507,-1.65187 -1.48037,-1.83004 -0.74739,0.0225 -1.52006,0.0134 -2.1163,0.22549 l -1.34508,0.28496 -0.84377,0.0274 c 0.29133,-0.70747 0.52564,-1.37577 -0.30457,-1.30979 l -0.57516,-0.0535 c 0.26795,-0.12644 0.27512,-0.30534 0.14968,-0.51045 0.52844,-0.1087 0.85263,-0.40827 0.79083,-1.06795 l -0.61306,-0.23398 c -0.10366,-0.62141 -0.37581,-0.3759 -0.59803,-0.38628 -0.24276,0.14165 -0.45611,0.30143 -0.60064,0.50195 -0.10323,0.0467 -0.15862,0.0104 -0.11438,-0.19868 -0.11938,-0.10438 -0.0845,-0.20868 -0.11634,-0.31307 l -0.5745,-0.17189 0.007,-0.48758 -0.24248,-0.21176 c -0.80298,-1.84154 -1.70161,-2.25485 -2.57904,-2.97969 -0.36856,-0.23014 -1.45915,-0.74723 -2.45682,-0.75357 z m 1.54508,18.00165 c 0.44891,0.29516 0.93391,0.51825 1.27187,1.03528 0.46188,0.65937 0.89322,1.59353 1.39017,1.93723 0.32465,0.95088 0.54113,1.88855 -0.10588,2.72282 -0.82895,0.89308 -1.47562,1.68512 -1.94964,2.38102 l -0.36535,0.59737 -1.01436,1.31763 c -0.94497,2.20403 -0.7258,3.34555 -0.82679,4.77899 0.32679,3.48935 0.92992,5.80328 1.46599,8.40314 l -1.06403,-0.66405 c -0.52921,-2.2068 -1.30427,-2.10074 -3.0823,-1.92284 -0.12756,-0.78022 -0.66598,-1.56092 -0.16928,-2.34114 l 0.36339,-1.03592 c 0.0225,-0.66101 0.0368,-1.32764 0.33071,-1.79866 l 0.71306,-2.13266 1.05227,-2.14244 c 0.65969,-1.22758 1.17901,-2.45471 1.25096,-3.68228 0.14131,-1.18026 0.17622,-1.7756 0.2451,-2.55749 0.21392,-1.57596 0.53542,-3.02834 0.49411,-4.896 z m 4.52018,16.53176 0.45163,0.67972 c 0.18036,1.50366 0.41377,2.85705 1.09606,4.19339 l 1.50586,3.76465 c -0.92785,-0.4785 -1.81915,-0.9795 -3.45092,-1.02482 0.30609,-2.27719 0.42582,-4.83393 0.39737,-7.61294 z"
       id="path6"
       inkscape:connector-curvature="0" />
    <path
       d="m 564.59679,731.03493 0.35356,-0.0994 c -0.51038,1.32013 0.39822,2.97413 0.7955,4.50781 1.17011,1.35342 2.47648,3.22163 1.3445,5.61417 -0.11335,0.23957 -0.92352,0.52191 -1.14819,0.724 -2.14839,0.55087 -2.96461,0.96501 -4.25684,1.76432 -0.93926,0.32045 -1.67144,0.50284 -2.34761,0.6479 l -0.23006,0.0185 -0.16463,-0.23501 c -0.55577,-0.5322 -0.86106,-1.17174 -1.22243,-1.78726 -0.0711,-0.15117 -0.15404,-1.6148 -0.23726,-2.40359 -0.10261,-0.37926 -0.18926,-0.717 -0.43393,-1.46561 l -0.75406,-1.95964 c -0.21226,-0.25156 -0.31415,-0.49308 -0.82856,-0.7721 l 0.35561,-0.10707 c 0.36377,0.10977 0.48616,0.35748 0.65403,0.57919 l 1.20273,2.51262 c 0.67298,0.49535 1.34595,0.48524 2.01893,0.66103 l 1.77727,0.58191 c 0.70853,0.32718 1.43616,0.54451 2.03183,1.52066 l 0.20737,0.0334 c 0.0713,-0.94687 0.1584,-1.93329 0.28832,-3.02674 l 0.61531,-1.62238 c 0.43751,-0.86185 0.57462,-1.29662 0.56972,-1.66495 -0.2949,-1.21884 -0.85941,-2.63539 -0.75967,-3.56483 z"
       id="path8"
       inkscape:connector-curvature="0"
       style="fill:#ffffff;fill-rule:evenodd" />
    <path
       d="m 556.125,750.48718 0.49947,-0.69621 0.3565,-0.61197 c 0.18524,0.26471 0.40837,0.50416 0.76903,0.65193 0.79767,0.57352 1.61574,1.12663 2.47573,1.63782 0.67506,0.45689 1.17504,0.87399 2.14236,1.3973 1.11331,0.41134 2.17385,0.66958 3.37515,0.61169 0.31847,0.014 0.60915,0.0372 0.83952,0.0806 -0.0629,0.35385 -0.10789,0.81708 -0.2372,1.11782 l -0.16147,0.78101 c -0.20162,0.46476 -0.16587,0.94139 -0.0756,1.42075 l -0.0222,0.1588 c -1.56662,0.10978 -3.06054,0.29292 -4.42311,0.57762 l -0.78662,-0.009 c -0.0486,-0.72235 0.5245,-1.14269 -1.45913,-2.80488 -1.03437,-0.42791 -2.08419,-0.84036 -3.29247,-1.09436 -0.46149,-0.19037 -0.92785,-0.39932 -1.19324,-0.26516 0.0266,-0.27112 0.0534,-0.54241 0.19501,-1.04361 0.22054,-0.70417 0.4864,-1.38116 0.99823,-1.91056 z"
       id="path10"
       inkscape:connector-curvature="0"
       style="fill:#ffffff;fill-rule:evenodd" />
  </g>
</svg>
