<?xml version="1.0" encoding="utf8" standalone="no"?>
<svg viewBox="0 0 744.09448819 1052.3622047" xmlns="http://www.w3.org/2000/svg">
<g transform="matrix(13.05586,0,0,13.05586,-6917.5451,-9364.4489)">
<path d="m554.83777,723.11778c-.72803-.004-1.40669.26289-1.71827,1.1124-.97293.17146-1.19924.85342-1.44246,1.52415-1.7825,3.12414-1.88569,5.31385-2.43788,7.16785-.10022.18077.0279.39789-.0392.58562-.64834,1.81538.009.57524.23424.3104 1.4777-1.7359.16094,4.24785 2.66843,4.9623-.13943-.27718-.54797-.46999-.4013-.83658l-.14771-.30783c-.18425-.0929-.17842-.2235-.16993-.35491 .0577-.24917.23723-.35279.38758-.49083-.0571-.34323.0539-.2447.14901-.18823 .10776-.38713.18669-.79877.15752-1.30326l.16928.0915c-.15.49247-.16189,1.12241-.22222,1.70455 .0267.52635.0209,1.02984.17843,1.64965l.0765.63527c.1522-.0629.31564.028.43071-.55489l.0908.3902 .21764-.0261c.0695,2.13073.0587,4.42256.0516,6.70643-.59261,2.43774-1.47397,4.58703-1.5673,7.52405l-.67319,3.23198-.44836,2.15029-1.21566,2.22414-.10784.24901 .47516.38105c.17922.23811.27433.47626.71241.71437 .11964-.001.25719.0421.30195-.14642 .11827.21523.25125.3902.48627.29411l.29738-.0458c.14733.17881.29449.18657.44182-.068 .11386.11541.21079.2376-.1196.52678-.36994.18108-.97644.49492-1.34638.52745-.87057.24831-2.27548.19587-2.57512.76534-.58956,1.24884-.97406,2.62104-1.16926,4.10648l.39476.34117 .32418-.26274c.045.21461.32626.71303.73267-.25229l.36927-.6392 1.21044-.52221c2.32201-.14598 4.64389-.83858 6.9659.25163l.0274,1.86597c-.97801,3.55758-.11057,6.35498.13594,9.40834 .22521,1.92061 1.29835,4.40678.64705,5.74305 .11243.83597.40103,1.7893.0745,2.33263l.0497,1.56796-.26274,1.70323c-.36629.91191-.1585,1.64442.23137,2.098 .8339.97021 2.62782,1.19031 2.80126.81502 .38337-.82952.62172-1.609.51894-2.27185-.3459-1.21244-.63663-2.45465-.62417-3.86006l-.26274-1.62415c.0223-.43607-.0356-.91206-.23594-1.45947l-.17974-1.11043c.0803-.76532.16119-1.51627.21438-2.71564 .17741-1.79303.57696-3.44954.43071-5.44175-.18524-1.37323-.29858-2.6879-.0425-3.70254l.24052-1.39726c1.31268.71295 2.9334,1.5577 4.63326,2.43657 1.60977,1.02852 2.35125.73425 3.15877.88496 .89978-.40247 1.84403-.73441 2.06793-2.21827 .10915-.78783.0395-1.72892-.12674-2.75289-.53161-2.83964-.88404-5.63791-2.39603-8.70378l-.14315-.14314c.15179.0583.30377.001.45555.21765l.34444-.001 .0667-.23202c.20806.0912.45012.26377.41175-.23267l-.65293-.87973-.18431-.78429 .10981-.12674 .14705.53724 .45358.88627c.13721.19332.26848.41823.5013.11436-.11156-1.02711-.65635-1.57014-.4843-2.32937 .0148-.87924.10188-1.70408-.0275-2.69146-.01-.39228-.25133-.70167-.0118-1.18298 .73156-2.53003 1.48559-5.03765 1.7575-8.02731 .37342-.83401-.0104-1.92027-.0562-2.89407-.58101-2.78653-.89215-5.34818-1.89801-8.48875-.31838-.7851-.55507-1.65187-1.48037-1.83004-.74739.0225-1.52006.0134-2.1163.22549l-1.34508.28496-.84377.0274c.29133-.70747.52564-1.37577-.30457-1.30979l-.57516-.0535c.26795-.12644.27512-.30534.14968-.51045 .52844-.1087.85263-.40827.79083-1.06795l-.61306-.23398c-.10366-.62141-.37581-.3759-.59803-.38628-.24276.14165-.45611.30143-.60064.50195-.10323.0467-.15862.0104-.11438-.19868-.11938-.10438-.0845-.20868-.11634-.31307l-.5745-.17189 .007-.48758-.24248-.21176c-.80298-1.84154-1.70161-2.25485-2.57904-2.97969-.36856-.23014-1.45915-.74723-2.45682-.75357zm1.54508,18.00165c.44891.29516.93391.51825 1.27187,1.03528 .46188.65937.89322,1.59353 1.39017,1.93723 .32465.95088.54113,1.88855-.10588,2.72282-.82895.89308-1.47562,1.68512-1.94964,2.38102l-.36535.59737-1.01436,1.31763c-.94497,2.20403-.7258,3.34555-.82679,4.77899 .32679,3.48935.92992,5.80328 1.46599,8.40314l-1.06403-.66405c-.52921-2.2068-1.30427-2.10074-3.0823-1.92284-.12756-.78022-.66598-1.56092-.16928-2.34114l.36339-1.03592c.0225-.66101.0368-1.32764.33071-1.79866l.71306-2.13266 1.05227-2.14244c.65969-1.22758 1.17901-2.45471 1.25096-3.68228 .14131-1.18026.17622-1.7756.2451-2.55749 .21392-1.57596.53542-3.02834.49411-4.896zm4.52018,16.53176 .45163.67972c.18036,1.50366.41377,2.85705 1.09606,4.19339l1.50586,3.76465c-.92785-.4785-1.81915-.9795-3.45092-1.02482 .30609-2.27719.42582-4.83393.39737-7.61294z"/>
<path d="m564.59679,731.03493 .35356-.0994c-.51038,1.32013.39822,2.97413.7955,4.50781 1.17011,1.35342 2.47648,3.22163 1.3445,5.61417-.11335.23957-.92352.52191-1.14819.724-2.14839.55087-2.96461.96501-4.25684,1.76432-.93926.32045-1.67144.50284-2.34761.6479l-.23006.0185-.16463-.23501c-.55577-.5322-.86106-1.17174-1.22243-1.78726-.0711-.15117-.15404-1.6148-.23726-2.40359-.10261-.37926-.18926-.717-.43393-1.46561l-.75406-1.95964c-.21226-.25156-.31415-.49308-.82856-.7721l.35561-.10707c.36377.10977.48616.35748.65403.57919l1.20273,2.51262c.67298.49535 1.34595.48524 2.01893.66103l1.77727.58191c.70853.32718 1.43616.54451 2.03183,1.52066l.20737.0334c.0713-.94687.1584-1.93329.28832-3.02674l.61531-1.62238c.43751-.86185.57462-1.29662.56972-1.66495-.2949-1.21884-.85941-2.63539-.75967-3.56483z" fill="#fff" fill-rule="evenodd"/>
<path d="m556.125,750.48718 .49947-.69621 .3565-.61197c.18524.26471.40837.50416.76903.65193 .79767.57352 1.61574,1.12663 2.47573,1.63782 .67506.45689 1.17504.87399 2.14236,1.3973 1.11331.41134 2.17385.66958 3.37515.61169 .31847.014.60915.0372.83952.0806-.0629.35385-.10789.81708-.2372,1.11782l-.16147.78101c-.20162.46476-.16587.94139-.0756,1.42075l-.0222.1588c-1.56662.10978-3.06054.29292-4.42311.57762l-.78662-.009c-.0486-.72235.5245-1.14269-1.45913-2.80488-1.03437-.42791-2.08419-.84036-3.29247-1.09436-.46149-.19037-.92785-.39932-1.19324-.26516 .0266-.27112.0534-.54241.19501-1.04361 .22054-.70417.4864-1.38116.99823-1.91056z" fill="#fff" fill-rule="evenodd"/>
</g>
</svg>
