<?xml version="1.0" encoding="utf8" standalone="no"?>
<svg viewBox="0 0 329.60001 897.59998" xmlns="http://www.w3.org/2000/svg">
<g transform="translate(-218.2,-80.56218)">
<path d="m416.96246,88.81747c-7.87694.00742-16.16656,1.46872-25.60553,6.94323-21.49785,17.86545-24.13119,44.40401-25.77817,73.6519 1.83643,18.30523 4.49299,35.34399-3.10719,54.75942-8.71983,1.05396-18.29705,4.21977-28.02225,2.91538-9.80925-1.31565-21.46145.40028-26.25767,5.37046-15.20266,20.83795-21.67897,47.82664-30.26632,74.74516s-13.4166,48.5499-13.57957,52.61124c-2.10496,11.46905-1.86568,24.77292 2.20572,37.91921 8.43928,21.84348 16.31097,41.99244 25.31784,65.53869 .58571,1.34865-2.48823,2.31621-2.10982,3.79767s1.13794,3.31437 1.36179,4.87177 1.14385,3.29532 1.2659,4.87177 2.66978,3.14135 2.74276,4.67997c.14597,3.07719.53941,6.02734.80557,8.61189s.70694,4.80774 1.51523,6.44455l7.53782,10.72171c1.17624,1.78362 5.61823-.74389 6.387.69049 1.62415,3.03039 6.06552,2.04707 7.67207.46033 1.14327-1.12916 2.96904,1.5061 4.52652,1.34261s3.08796-.45416 4.56489-.93983c-5.72849,16.57168-14.90233,33.14335-17.18545,49.71503-6.54683,21.89101-16.1625,32.99059-19.6405,65.67294-.97388,12.88908-.05299,25.77817 0,38.66725l-7.36519,24.55063-16.57168,46.03244c-14.57127,43.67163-15.30597,84.75906-18.41297,130.11835l-4.91013,9.20645v14.11666c-2.70904,22.3781-12.21644,43.79004-15.30579,66.11412 .61852,1.60444.87814,3.53928 2.28245,4.98687 2.25333,2.32243 6.08863,4.07248 8.76533,6.31017 3.33333,2.30285 7.22628,1.76881 11.12451,1.24674 40.25771-12.24604 14.93585-25.49648 20.13919-39.37693 .73331-12.93851 1.0172-25.77 9.82026-38.05344 1.71863-6.95596-.9268-13.91201-2.45507-20.86806 4.37531-32.55786 35.84302-93.00529 37.43972-100.04381l11.66154-48.4875c12.03064-15.3477 17.36279-38.88244 24.55064-60.14905l32.52959-64.44541 15.88119-38.55216c7.33537-.04443 14.16724-7.90662 17.26217-12.3904l7.36519.61376c-.64628,7.77437.04351,15.54874 7.97895,23.32311l20.25427,98.81629 12.27532,28.23323 8.59272,39.28101 11.66155,77.94825 1.22753,31.30206-3.06883,11.04782 .61377,22.70935-3.6826,28.84698-8.27042,23.60814c-1.00189,3.5519-.17663,8.47445 2.13276,10.58294 15.63414,15.20878 38.99623-.26302 41.51908-8.6364 .47105-13.63506.93563-24.01512 3.06883-37.65027l-.39677-26.5717-1.8413-3.68258v-9.20646l-2.45505-13.50288c3.03126-31.11001 7.527-61.73183 7.36518-93.90617-.39969-26.7012-4.93763-52.36779-12.27531-77.3345-1.78575-16.84952-3.70391-33.64025-5.15948-50.65482-1.04529-12.21867-1.84973-24.55039-2.20571-37.11368 .86564-8.38211 1.70947-16.06014 2.35916-23.36146 2.13096-23.94807 2.1602-43.77708-6.08012-70.54472l-1.80293-4.91012 3.68259-2.45506c2.71841-.61004 2.2679,3.30698 8.59272-2.45506 1.12647.94513 3.06583.67824 6.50208-1.8413 2.71389-6.77062 8.78856-12.60828 7.32683-20.94476-4.75671-3.68773-2.08122-2.56495-15.67021-9.74354-1.64608-7.21112.19471-13.56095.61377-20.25426 .12696-11.42811-.95807-22.29746-3.81685-33.23926-3.7867-14.70111-6.30642-29.39411-9.686-44.09524-4.28892-15.11164-3.05012-42.20227-8.91878-66.97719-7.01872-11.62309-14.5355-11.88381-15.95791-12.94663l-8.26667-23.18884c2.65566,4.5506 4.78043,9.10571 7.97896,13.6563l-4.29636-14.27006c3.90322,7.10294 11.93725,13.86119 9.62846,21.4818 2.40347-6.11916-1.22131-11.13999-4.18129-16.28397 2.91196,4.6022 7.49173,8.79315 11.12451,13.21514-5.39499-7.56977-10.74079-15.13956-11.04778-22.70933l-3.6826-18.41298c2.28421,5.82563 1.80967,11.64751 7.19257,17.47315-3.43015-6.64399-1.31587-13.28421-1.66868-19.92821 1.30916,6.75143 2.66291,13.50285 7.36519,20.25427-4.81926-9.20648-5.15796-18.41297-6.75142-27.61946-1.81181-6.40291-3.80225-12.79645-4.56489-19.19936-.99184-8.32746-.50319-16.66431-.959-24.99177l.61376-31.91582c-2.18923-9.61567-3.7619-19.23134-12.27532-28.847-5.83988-7.92362-13.32902-11.99894-20.86804-15.95791-5.96717-.55191-11.84531-1.42511-17.97183-1.41934zm51.72896,156.70209c.35749.79844.75674,1.59352 1.18916,2.37834-.44639-.78166-.85953-1.56749-1.18916-2.37834zm-155.30193,80.30741c1.15731,16.92592.14275,33.69059 2.7044,50.61651 4.27958,17.0307 8.89995,31.06773 12.44794,49.56158 .12293,9.2406.98964,16.64272-5.19783,41.65936l-3.60588-10.03123c-.97853-1.53542-1.64696-3.13532-4.98684-4.27718-3.24947-12.54539-8.42031-23.42975-9.87779-36.30809-1.68355-14.87588-5.06682-25.81997-8.88043-38.16856 .8265-12.01133 5.68067-21.59203 9.45583-34.3517l7.9406-18.70069zm152.82769,59.97644 5.84994,22.13392c1.63576,11.86066 3.8217,23.36856 11.71909,31.24452l-4.98684,13.23433c.04406-3.76131.07974-7.51663-.44114-11.27795-2.24232-5.54721-4.47074-9.5549-6.71306-12.79318l-14.3276-20.40772c-1.38142-1.51897-3.54464-3.48101-6.08012-5.21701l-.65213-5.4088-1.30425-5.42799c7.96344-.6988 13.00348-3.07803 16.93611-6.08012zm28.636,74.43828 .86311,6.06093-3.03047,8.24748-4.56488-9.32157 5.21701-2.6085 1.51523-2.37834z" fill-rule="evenodd" stroke="#000" stroke-width=".61377"/>
</g>
</svg>
